<?xml version="1.0" encoding="UTF-8"?>
<svg id="Layer_2" xmlns="http://www.w3.org/2000/svg" version="1.1" viewBox="0 0 199.3 199.3">
  <!-- Generator: Adobe Illustrator 29.0.1, SVG Export Plug-In . SVG Version: 2.1.0 Build 192)  -->
  <defs>
    <style>
      .st0 {
        fill: #00a651;
      }
    </style>
  </defs>
  <g id="pe3EVc">
    <g>
      <path class="st0" d="M42.5,94.8h114.8l-14.5-36.6c-.6-3.6,3.8-6.4,6.6-3.8.6.6,1,1.8,1.4,2.6,6.1,12.8,10,27.5,16,40.4,9.2,4.6,16.7,12,19.9,22,3,9.4,1.4,19.2,1.8,28.9,3.6,2.2,5.9,4.3,6.3,8.7s.3,9.7-3.6,12.6c-.6.5-3.2,1.8-3.7,1.8h-7.1c-.4,0-.6,1-.6,1.4-1,8.6,3.4,21.3-10,22.3-6.3.5-20.3.7-26.3-.1-2.8-.4-5.6-2-7.2-4.3-.3-.5-1.8-3.4-1.8-3.7v-15.6h-69.4v15.6c0,.3-1.5,3.2-1.8,3.7-1.6,2.3-4.4,3.9-7.2,4.3-6,.8-20.1.6-26.3.1-5.2-.4-9.6-3.9-10.1-9.3-.4-4,.7-9.8,0-13.4,0-.3-.3-1-.6-1h-7.1c-.5,0-3.1-1.3-3.7-1.8-3.9-2.9-4-8.2-3.6-12.6s2.6-6.6,6.3-8.7c.5-9.5-1-19.1,1.7-28.3,3-10.2,10.9-18.3,20.5-22.6l16.1-40.6c1.9-5.2,8.3-3.7,7.9,1.6l-14.5,36.6h0ZM180.6,148v-20.3c0-11.5-13-24.3-24.4-24.9H44.6c-12-.1-25.8,12.9-25.8,24.9v20.3h47v-14c0-2.7,5.2-7.6,8.1-7.7,16.4.9,34.2-1.3,50.5,0,3.4.3,6.3,2,8,5,.2.4,1.3,2.4,1.3,2.7v14h47,0ZM73.6,135.6c-.6,3.5.5,8.7,0,12.4h52.1v-12.4c0-1-1.7-1.5-2.5-1.4-15.2.8-31.5-1-46.6,0-1.1,0-2.7,0-2.9,1.4ZM186.5,163.4c.4,0,1.4-8.2-1.4-7.5l-171.8.2c-1.4.7-.8,5.8-.4,7.3h173.6ZM57.1,171.3h-29.6v14.4c0,.6,1.9,1.3,2.5,1.4,5.4.6,18.6.5,24.1,0,.7,0,2.9-.6,2.9-1.4v-14.4h0ZM171.9,171.3h-29.6v14.4c0,.6,1.9,1.3,2.5,1.4,5.4.6,18.6.5,24.1,0,.7,0,2.9-.6,2.9-1.4v-14.4h0Z"/>
      <path class="st0" d="M137.4,35.7c2.9,2.8,2.9,11.9,0,14.7-1,1-3.5,1.6-4,2.1-.3.4-1.3,3.7-1.7,4.6-.3.8-1.5,2.3-1.6,2.8-.2,1.1,1.6,3.1.8,6.3-.6,2.5-5.8,7.5-8.1,8.1-3.9,1-5.8-1.3-6.8-1.2-1.2.1-4.6,2.4-6.3,2.3-1,7-10.4,8.3-15.6,5.7-3.2-1.6-2.6-4.5-4-5.9-1.1-1-4.9-1.4-6.2-2.9-2.6.8-3.6,1.8-6.6,1.5s-8.5-5.8-9.1-8.7c-.8-3.7,1.9-5.5,1.8-7.3,0-.3-1.8-4.9-1.9-5.1-.7-.9-4.7-.5-6.6-4.2-1.4-2.8-1.4-8.7,0-11.5,1.7-3.5,5.1-2.7,6.5-4.1.9-.9,1.3-4.7,2.6-5.9-1.3-2.5-2.4-4.7-1.6-7.6.6-2.1,5.9-7.2,8-7.8,4.2-1.1,5.7,1.5,7.7,1.4.3,0,4.8-1.8,5.1-2,1.2-.7,1-4.3,4.2-6.1,2.6-1.4,8.9-1.4,11.6-.1,3.4,1.7,2.9,4.7,4.2,5.6,1.2.9,5.2,1.4,6.7,2.8,1.1.2,3.4-1.4,4.9-1.4,4.2,0,10.9,6.9,10.4,11.2-.1,1.3-1.4,3-1.4,3.6,0,1,2.8,5,2.7,6.6.5.8,3.1,1.4,4.1,2.4h0ZM103.7,17.4c-.7-.5-.8-5.1-2.6-5.5-4.6-.9-3,3.8-4.6,5.4-.4.4-3.9,1.1-5,1.5-1.8.7-4.7,2.9-5.9,3.2-2.1.6-4.4-3-6.8-1.8-3.5,1.8,1.2,4.9.9,7.2,0,.7-2.4,4.1-3,5.4-.6,1.6-1.5,6-2.5,6.6-1.3.9-5.3,1.1-5.6,2.6,0,.4,0,2.3,0,2.5.3.4,5.7,1.5,6.2,2.1.3.4,1,4.1,1.4,5.1.7,1.7,3.2,5.4,2.8,6.9s-2.9,3.9-2.1,5.1c2.8,4.1,5.7-.8,7.7-.5.4,0,4,2.6,5.1,3.1,1.9.9,5.4,1.4,6.6,2.1,1.6.9,1.2,5.4,3,5.7,4.2.8,2.8-2.7,4.2-4.9.5-.8,5.6-1.8,7.1-2.3s4.5-2.6,5.6-2.7c1.8-.1,3.2,2.7,5.1,1.6,3.7-2.2-.4-4.6-.1-6.5,0-.4,3-4.6,3.5-5.9.7-1.7,1.6-6.2,2.1-7,.8-1.3,4.6-.9,4.9-2.6.9-4.5-3.8-2.7-4.9-4.5-.4-.6-1-4.5-1.6-5.9-.7-1.9-3.2-5-3.5-6.3-.5-1.8,4.3-4.2.4-6.7-1.3-.9-3.5,1.9-5.5,1.6-.9-.1-5.2-2.9-7.1-3.6-1.1-.4-5.4-1.1-5.7-1.2h0Z"/>
      <path class="st0" d="M41.9,111.9c17.2-.2,18.1,25.3,2.3,27.1-20,2.3-20.7-26.9-2.3-27.1ZM41.9,119.8c-6.8.1-7,10.3-1.2,11.2,9.1,1.4,9.2-11.4,1.2-11.2Z"/>
      <path class="st0" d="M157.5,111.9c17.1-.2,18,25.3,2.3,27.1-19.9,2.3-20.8-26.9-2.3-27.1ZM156,120.1c-5.4,1.1-5.4,10.5,1.1,11,8.8.6,8.1-12.9-1.1-11Z"/>
      <path class="st0" d="M96.4,25c29.7-4,29.6,39.1,1.1,36.1-21.6-2.3-21.5-33.4-1.1-36.1ZM97.6,32.9c-12.6,1.8-11.2,21.8,3.8,20.4,14.1-1.3,12.6-22.8-3.8-20.4Z"/>
    </g>
  </g>
</svg>