<?xml version="1.0" encoding="UTF-8"?>
<svg id="Layer_2" data-name="Layer 2" xmlns="http://www.w3.org/2000/svg" viewBox="0 0 511.89 511.07">
  <defs>
    <style>
      .cls-1 {
        fill: #00a651;
      }
    </style>
  </defs>
  <g id="Layer_1-2" data-name="Layer 1">
    <g id="_7qOcgx" data-name="7qOcgx">
      <g>
        <path class="cls-1" d="M511.89,147.78v52.9c-1.58,4.08-7.1,8.98-11.48,8.98h-34.43v208.59c22.78-.48,41.31,17.37,45.91,38.92v45.91c-2.25,3.85-4.13,5.73-7.98,7.98H8.87c-4.39-2.72-7.33-4.84-8.01-10.46-1.43-11.85-.96-43.81,3.53-54.4,6.67-15.74,24.95-28.75,42.4-27.96v-208.59H12.36c-5.2,0-10.66-5.44-11.39-10.57-1.36-9.55-1.21-39-.09-48.81.38-3.3,1.28-5.92,3.96-8.02L233.76,5.89c14.06-7.85,31.18-7.85,45.25,0l224.81,133.49c3.73,2.03,6.21,4.61,8.07,8.4ZM488.93,185.71v-27.45L263.36,24.53c-5.08-1.6-8.88-1.6-13.96,0L23.84,158.26v27.45h465.09ZM116.66,209.66h-45.91v208.59h45.91v-208.59ZM209.48,209.66h-68.87v208.59h68.87v-208.59ZM279.34,209.66h-45.91v208.59h45.91v-208.59ZM372.16,209.66h-68.87v208.59h68.87v-208.59ZM442.02,209.66h-45.91v208.59h45.91v-208.59ZM23.84,463.66c-.75,6.76,0,15.87,0,22.96,0,.11,1.39,1.5,1.5,1.5h462.1c.11,0,1.5-1.39,1.5-1.5v-22.96c0-11.9-12.73-22.75-24.42-22.49H49.24c-13.48.11-23.92,9-25.4,22.49Z"/>
        <path class="cls-1" d="M248.16,70.19c65.8-8.9,73.4,86.3,13.59,92.44-62.17,6.38-69.35-84.89-13.59-92.44ZM253.15,93.15c-25.88,3.31-25.53,41.94-2.19,45.59,38.03,5.94,36.35-49.95,2.19-45.59Z"/>
      </g>
    </g>
  </g>
</svg>