<?xml version="1.0" encoding="UTF-8"?>
<svg id="Layer_2" xmlns="http://www.w3.org/2000/svg" version="1.1" viewBox="0 0 199.3 199.3">
  <!-- Generator: Adobe Illustrator 29.0.1, SVG Export Plug-In . SVG Version: 2.1.0 Build 192)  -->
  <defs>
    <style>
      .st0 {
        fill: #00a651;
      }
    </style>
  </defs>
  <g id="Ou60kq">
    <path class="st0" d="M27.6,88.5c-2.1.4-4.3,5.6-7.4,2.2-3.3-3.8,3.9-8.6,7.4-8.6,11.4.8,24.3-1.1,35.5,0,1,0,2,.4,2.9.7,1.4.5,2.3,1.6,3.7,2.1,2.5-8.3,7.8-17.4,15.5-21.7,1.9-1.1,4-1.7,6-2.8-12.7-10.8-12.2-30.6,1.5-40.4,14.1-10.1,34.1-3.7,39.2,12.9.8,2.4,2.2,8.3.2,10.2-1.4,1.3-2-.2-1.8,3,.4,5.3,6.5,7.8,2,13.6-.7.9-2.2,1.7-2.6,2.2-.4.7-.6,2.3-1.1,3.3-1.6,3.4-4.8,5.8-8.7,5.8-.3.3,1.5,2.7,1.8,3.2,2.2,3.2,5.4,7.4,9.6,8,3.3.5,6.7-.6,9.9-.4,3.8.3,6.4,2.3,9,4.8.8-4.3,4.7-7.9,8.6-9.5,2.4-1,8.1-2.6,9.1.7v27.9c-1.7,3.6-5.7,1.5-8.4.8-.6,0-.7,0-.6.6l11.2,26.1c22.1-.8,35.1,25,20.6,42.1-14.4,17.1-42.1,8.4-44.9-13.4h-48.4c-4,29.3-46.3,29.3-50.2,0-3-.6-11.9,1.6-13-2s1-13.8,2-17.6c1.5-5.5,3.9-11.3,7.8-15.5h-17.7c-.1,0-2.2-.9-2.6-1-3.3-1.6-5.4-4.9-5.6-8.5-.5-.4-11,.2-12.9,0-4.7-.5-2.9-6.4-.8-6.4h13.8v-6.4h-7.4c-2.1,0-4.2-5.9,1.2-6.4,3.9-.3,11.7-.4,15.6,0,2.3.2,3.7,1.3,3.4,3.8-.4,3.2-4,2.7-6.4,2.6v6.4h7.4c2.8,0,2.8,6.4,0,6.4h-7.4c.2,1.6,1.7,3.1,3.4,3.2,10.9-.8,23.2,1,33.9,0,2.7-.2,3.9-1,4.2-3.8.6-5.2.6-19.1,0-24.3-.2-1.5-1.3-3.8-3-3.8h-6.6v10.6c0,1.3-2.2,2.1-3.4,2.2-3.5.3-13.1.5-16.3,0-.9,0-2.6-1.3-2.6-2.2v-10.6c-2,.3-4.8-.4-6.6,0h0ZM126.3,37.5c-2.5-15.6-21.8-21.4-32.7-9.8-10.4,11.2-4.1,29.3,10.8,31.7v-11c0-4.2,6.8-11,11-11h11-.1ZM123.5,43.8c-5.3-.2-12-.7-12.8,6.2-.3,2.6-.3,9.4,0,12,0,.4,0,.9.4,1.2.2,0,4.5,1.3,5,1.3,2.3.3,5.1.4,6.5-1.8,1-1.6.6-3.4,1.3-4.7.6-1.1,3-1.9,3.1-2.5s-4.8-9.4-3.6-11.7h0ZM72.5,104.4h26.5c1.5-4.4,3.3-8.7,6.5-12.2-1.6-2.2-7.3-8.4-2.6-10.3,3.6-1.5,5.6,4.1,7.7,6.5,3.8,4.3,9.7,8,15.4,8.8,0-3.3.8-6.4,2.4-9.4-11.1-3.5-13.1-18.1-24.4-21.1-16.4-4.3-25.4,9.6-29.2,23.3-1.3,4.6-2.3,9.6-2.2,14.3h0ZM161.8,82.9c-8.5,2.6-8.5,15,0,17.5v-17.5ZM138.2,88.2c-1.9.4-4,2.2-4.8,3.9-.5,1.1-1.8,5-.7,5.8,1.7,1.2,14.3-1.9,14.3-3.2-1.8-4.4-3.3-7.5-8.8-6.5ZM50.2,88.5h-9.6v6.4h9.6s0-6.4,0-6.4ZM132.7,153.1c3.5-2.2,3.9-6.3,3.5-10.1l-8.8-38.3c-.4-.8-4.2-1.3-5.5-1.7-4.4-1.4-8.1-3.4-11.8-6.1-.7,0-4.4,6.3-4.2,7.7,0,.5,5,1.7,6.1,2.3,4.4,2.1,8.4,6.8,10.1,11.4,2.7,7.3.7,16.8,1.3,24.6,4.6,1.6,8.8,5.1,9.2,10.2h.1ZM139.5,155.5h11l14-19.7c-5.2-11.5-9.8-23.5-15.2-34.9-4.7,2.4-10.1,3.6-15.4,3.6l9.1,40.1c-.3,3.9-1.2,7.7-3.6,10.9h0ZM117.2,142.7v-18.5c0-6.3-8-13.4-14.2-13.4h-30.5v7.4c0,.4-.7,1.6-.8,2.2h19.7c5,0,13,7.9,13,13v9.4h12.8ZM101.2,155.5c-7.7-8.6,3.3-25.8-11.4-28.7-10.2.5-21-.7-31.1,0-14,1-16.9,17.5-18.1,28.7h60.6ZM152.7,161.9c2.1,14,18.9,20.8,30.3,12.1,10.6-8,10-24.3-1.2-31.4-2.7-1.7-10-4.5-12.5-2.2l-5.4,8c10.8-7.6,24.7,3.8,19.2,15.8-4.1,8.9-17.2,9.8-22.3,1.4-.4-.6-1.6-3.7-1.9-3.7h-6.2ZM105.2,149.1c0,2.4,4.9,6.4,7,6.4h14c1.5,0-.2-3.5-.7-4.1-.5-.7-2.6-2.3-3.3-2.3h-17ZM166.2,161.9c0,1.2,2,2.5,3,2.8,6,2.1,11.1-4.6,7.4-9.8-2.5-3.6-8.6-3.6-10.4.6h6.2c2.8,0,2.8,6.4,0,6.4h-6.2ZM91.2,161.9h-6.2c-4.6,12.5-20.6,12.5-25.1,0h-6.2c3.6,21.1,33.8,21.1,37.5,0ZM77.7,161.9h-10.4c1.6,4.1,8.7,4.1,10.4,0Z"/>
  </g>
</svg>