<?xml version="1.0" encoding="UTF-8"?>
<svg id="Layer_2" data-name="Layer 2" xmlns="http://www.w3.org/2000/svg" viewBox="0 0 511.98 511.53">
  <defs>
    <style>
      .cls-1 {
        fill: #00a651;
      }

      .cls-2 {
        fill: none;
        stroke: #000;
        stroke-miterlimit: 10;
      }

      .cls-3 {
        fill: #fff200;
      }
    </style>
  </defs>
  <g id="Layer_1-2" data-name="Layer 1">
    <path class="cls-3" d="M460.9,429.57c-27.92,50.6-100.15,55.89-134.95,9.59-38.53-51.25-5.39-124.07,58.1-129.36,63.68-5.3,107.74,63.8,76.85,119.77Z"/>
    <g id="nXZmSP">
      <g>
        <path class="cls-1" d="M0,109.89l3.71-14.76c6.41-25.27,40.4-55.11,66.65-55.11h34.43V15.58c0-.53,2.03-4.47,2.56-5.43,7.47-13.53,27.33-13.54,34.81,0,.53.96,2.56,4.9,2.56,5.43v24.45h89.82V15.58c0-.53,2.03-4.47,2.56-5.43,7.47-13.53,27.33-13.54,34.81,0,.53.96,2.56,4.9,2.56,5.43v24.45h90.82V15.58c0-.53,2.03-4.47,2.56-5.43,7.47-13.53,27.33-13.54,34.81,0,.53.96,2.56,4.9,2.56,5.43v24.45h35.43c34.89,0,67.94,40.1,70.4,73.32,2.95,39.88-2.21,83.44-.13,123.71-4.58,23-37.77,21.73-39.87-1.87-3.29-36.87,2.87-78.66.08-115.85-1.38-18.34-16.36-39.38-36.47-39.38h-29.44v24.45c0,.53-2.03,4.47-2.56,5.43-7.47,13.53-27.33,13.54-34.81,0-.53-.96-2.56-4.9-2.56-5.43v-24.45h-90.82v24.45c0,.53-2.03,4.47-2.56,5.43-7.47,13.54-27.34,13.53-34.81,0-.53-.96-2.56-4.9-2.56-5.43v-24.45h-89.82v24.45c0,.53-2.03,4.47-2.56,5.43-7.47,13.53-27.33,13.54-34.81,0-.53-.96-2.56-4.9-2.56-5.43v-24.45h-28.44c-14.54,0-32.2,15.69-34.96,29.91-3.42,107.01-.45,214.69-1.5,321.94,1.3,21.32,16.27,37.25,37.59,39.26,49.73,4.68,106.17-3.2,156.61.09,22.94,2.97,25.01,32.31,3.45,39.96H69.86c-8.02-1.99-15.74-3.71-23.31-7.13-25.34-11.43-41.96-35.59-46.55-62.73V109.89Z"/>
        <path class="cls-1" d="M487.86,319.17c-55.66-76.52-175.24-61.47-209.89,26.28-29.15,73.81,20.97,158.7,100.29,165.66,6.39.56,17.56.56,23.95,0,91.9-8.06,140.14-117.03,85.65-191.94ZM460.9,429.57c-27.92,50.6-100.15,55.89-134.95,9.59-38.53-51.25-5.39-124.07,58.1-129.36,63.68-5.3,107.74,63.8,76.85,119.77Z"/>
        <path class="cls-1" d="M120.5,189.98c27.94-4.83,32.59,35.27,8.51,39.44-27.94,4.83-32.59-35.27-8.51-39.44Z"/>
        <path class="cls-1" d="M207.33,189.98c27.94-4.83,32.59,35.27,8.51,39.44-27.94,4.83-32.59-35.27-8.51-39.44Z"/>
        <path class="cls-1" d="M294.16,189.98c27.94-4.83,32.59,35.27,8.51,39.44-27.94,4.83-32.59-35.27-8.51-39.44Z"/>
        <path class="cls-1" d="M380.99,189.98c27.94-4.83,32.59,35.27,8.51,39.44-27.94,4.83-32.59-35.27-8.51-39.44Z"/>
        <path class="cls-1" d="M120.5,276.81c27.94-4.83,32.59,35.27,8.51,39.44-27.94,4.83-32.59-35.27-8.51-39.44Z"/>
        <path class="cls-1" d="M207.33,276.81c27.94-4.83,32.59,35.27,8.51,39.44-27.94,4.83-32.59-35.27-8.51-39.44Z"/>
        <path class="cls-1" d="M120.5,363.64c27.94-4.83,32.59,35.27,8.51,39.44-27.94,4.83-32.59-35.27-8.51-39.44Z"/>
        <path class="cls-1" d="M207.33,363.64c27.94-4.83,32.59,35.27,8.51,39.44-27.94,4.83-32.59-35.27-8.51-39.44Z"/>
        <path d="M422.58,410.22c-7.53,1.03-26.05.82-33.88.13-9.33-.84-17.41-8.03-18.43-17.51-1.16-10.72-1.01-34.06-.04-44.95,1.53-17.1,22.39-25.04,34.51-12.47,8.85,9.17,4.44,23.4,5.45,34.97,8.55-.23,16.38-.93,23,5.45,11.69,11.28,5.27,32.19-10.61,34.38Z"/>
      </g>
    </g>
    <path class="cls-2" d="M384.05,309.8c-63.49,5.29-96.63,78.11-58.1,129.36,34.8,46.3,107.03,41.01,134.95-9.59,30.89-55.97-13.17-125.07-76.85-119.77ZM422.58,410.22c-7.53,1.03-26.05.82-33.88.13-9.33-.84-17.41-8.03-18.43-17.51-1.16-10.72-1.01-34.06-.04-44.95,1.53-17.1,22.39-25.04,34.51-12.47,8.85,9.17,4.44,23.4,5.45,34.97,8.55-.23,16.38-.93,23,5.45,11.69,11.28,5.27,32.19-10.61,34.38Z"/>
    <path class="cls-1" d="M433.19,375.84c11.69,11.28,5.27,32.19-10.61,34.38-7.53,1.03-26.05.82-33.88.13-9.33-.84-17.41-8.03-18.43-17.51-1.16-10.72-1.01-34.06-.04-44.95,1.53-17.1,22.39-25.04,34.51-12.47,8.85,9.17,4.44,23.4,5.45,34.97,8.55-.23,16.38-.93,23,5.45Z"/>
  </g>
</svg>