<?xml version="1.0" encoding="UTF-8"?>
<svg id="Layer_2" data-name="Layer 2" xmlns="http://www.w3.org/2000/svg" viewBox="0 0 527.27 527.2">
  <defs>
    <style>
      .cls-1 {
        fill: #00a651;
      }
    </style>
  </defs>
  <g id="Layer_1-2" data-name="Layer 1">
    <g id="Q3EqIg">
      <g>
        <path class="cls-1" d="M102.65,1.54c104.99-4.57,212.62,2.78,317.89-.38,70.39,2.53,105.06,29.38,105.43,103.33-3,105.03,4.03,212.31.06,317.08-2.65,69.84-30.48,104.11-103.32,104.32-105.03-3-212.31,4.03-317.08.06-70.59-2.68-104.31-31.03-104.38-104.38,3.1-104.69-3.96-211.59,0-316.02C3.98,33.41,29.93,4.71,102.65,1.54ZM97.06,23.87c-53.73,2.95-71.23,24.42-73.5,77.21-4.86,113.05,2.73,230.43,1.31,343.75,2.06,31.05,26.42,55.43,57.49,57.49,113.58-1.62,231.59,6.45,344.86,1.31,54.15-2.46,73.95-22.33,76.47-76.47,5.28-113.18-3.03-231.34-1.31-344.86-4.94-41.52-34.19-58.87-74.1-58.74-109.18,4.1-222.51-5.65-331.22.32Z"/>
        <path class="cls-1" d="M217.56,356.47l220.78-.26c14.27,1.07,14.94,20.56.03,22.35l-217.71-.03c-13.47-1.19-16.46-17.76-3.09-22.07Z"/>
        <path class="cls-1" d="M218.68,94.14l218.55-.27c12.49.4,16.48,15.02,5.85,21.48-74.29,1.98-149.09.26-223.57.87-13.94-1.66-13.97-19.19-.83-22.09Z"/>
        <path class="cls-1" d="M216.42,225.84l223.06-.26c11.02,1.3,12.81,14.77,3.86,20.65l-224.95.61c-11.93-1.4-12.69-17.15-1.97-21Z"/>
        <path class="cls-1" d="M113.77,220.31c61.23-8.88,69.38,80.17,14.1,86.67-59.24,6.96-66.54-79.06-14.1-86.67ZM117.1,242.62c-21.35,3.66-21.14,38.9.94,42.05,32.15,4.59,31.94-47.69-.94-42.05Z"/>
        <path class="cls-1" d="M117.14,350.95c55.23-6.02,66.58,76.99,12.98,86.64-59.31,10.68-72.5-80.16-12.98-86.64ZM106.61,409.42c19.82,21.27,49.52-11.31,29.19-30.86-19.43-18.69-47.36,11.36-29.19,30.86Z"/>
        <path class="cls-1" d="M120.49,88.6c61.33-1.61,57.49,94.2-3.35,87.57-54.48-5.94-49.59-86.18,3.35-87.57ZM120.5,110.85c-27.23,2.17-24.78,45.35,3.01,43.34,26.81-1.94,23.09-45.41-3.01-43.34Z"/>
        <path class="cls-1" d="M217.56,411.18l134.85-.28c13.36,1.58,12.92,20.63-2.26,22.35h-129.5c-13.47-1.19-16.46-17.76-3.09-22.07Z"/>
        <path class="cls-1" d="M359.29,152.27c6.09,6.59,1.11,18.44-8,18.66h-131.78c-14.41-1.72-14.21-20.6,1.14-22.35,41.26,2.9,87.79-3.86,128.42-.04,3.14.3,8.03,1.37,10.22,3.74Z"/>
        <path class="cls-1" d="M216.42,280.54l135.99-.26c10.88,1.29,13.15,15.14,3.59,20.39-45.63,1.98-91.78.26-137.61.87-11.45-1.36-13.11-17.25-1.97-21Z"/>
      </g>
    </g>
  </g>
</svg>