<?xml version="1.0" encoding="UTF-8"?>
<svg id="Layer_2" data-name="Layer 2" xmlns="http://www.w3.org/2000/svg" viewBox="0 0 511 511">
  <defs>
    <style>
      .cls-1 {
        fill: #00a651;
      }
    </style>
  </defs>
  <g id="Layer_1-2" data-name="Layer 1">
    <g id="qLpam5">
      <g>
        <path class="cls-1" d="M0,511l.22-147.5,89.12-71.06.99-60.89,150.2-120.27v-49.4h-31.94v-29.94h31.94V0h29.94v31.94h31.94v29.94h-31.94v49.4l150.2,120.27.99,60.89c27.43,21.78,54.52,43.97,81.89,65.82,2.22,1.77,4.75,4.27,7.45,5.03v147.71H0ZM391.24,481.06v-234.04l-135.39-108.08-3.27,1.34-132.81,106.74v234.04h60.88v-105.29c0-39.04,43.46-69.67,80.39-67.42,32.51,1.99,69.32,33.6,69.32,67.42v105.29h60.88ZM89.82,481.06v-149.71l-59.88,47.41v102.3h59.88ZM481.06,481.06v-102.3l-59.88-47.41v149.71h59.88ZM212.09,383.25h86.83c.62,0,1.27-1.31,1.3-2.25.29-8.81-5.9-21.73-11.76-28.21-21.92-24.26-64.28-16.22-74.91,14.95-.9,2.63-4.3,14.67-1.46,15.51ZM240.53,413.19h-29.94v67.87h29.94v-67.87ZM300.41,413.19h-29.94v67.87h29.94v-67.87Z"/>
        <path class="cls-1" d="M249.29,188.91c61.36-7.4,68.96,83.54,11.57,89.42-60.14,6.17-67.99-82.62-11.57-89.42ZM266.14,222.91c-13.78-13.78-35.05,7.5-21.28,21.28,13.78,13.78,35.05-7.5,21.28-21.28Z"/>
      </g>
    </g>
  </g>
</svg>