<?xml version="1.0" encoding="UTF-8"?>
<svg id="Layer_2" data-name="Layer 2" xmlns="http://www.w3.org/2000/svg" viewBox="0 0 511 495.03">
  <defs>
    <style>
      .cls-1 {
        fill: #00a651;
      }
    </style>
  </defs>
  <g id="Layer_1-2" data-name="Layer 1">
    <g id="OcAdJl">
      <g>
        <path class="cls-1" d="M511,335.35h-15.97v127.75h-15.97v-127.75h-17.96c-.32,0-.94,3.71-2.58,5.9-7.13,9.53-15.92,10.87-27.36,10.06v39.92h31.94v47.91h-15.97v55.89h-15.97v-55.89h-79.84v55.89h-15.97v-55.89h-15.97v-47.91h31.94v-39.92c-12.41,1.29-22.99-1.88-29.36-13.1-.61-1.07-.43-2.87-.58-2.87h-17.96v127.75h-15.97v-127.75h-15.97v-47.91h47.91c-.39-11.56,8.52-21.84,19.72-23.69,32.68,1.36,68.23-2.7,100.59-.3,13.65,1.01,23.19,10.03,23.42,23.99h47.9v47.91ZM444.85,281.73c-1.47-1.47-5.05-2.14-7.15-2.33-29.5-2.68-62.99,2.15-92.92,0-5.9.54-8.78,2.38-9.46,8.51-.96,8.64-.95,30.32,0,38.97.68,6.15,3.6,7.98,9.46,8.51,29.95-2.14,63.39,2.65,92.92,0,6.72-.6,8.88-2.81,9.48-9.48.82-9.05.96-29.11-.03-38-.18-1.66-1.2-5.08-2.3-6.18ZM319.38,303.41h-31.94v15.97h31.94v-15.97ZM495.03,303.41h-31.94v15.97h31.94v-15.97ZM415.19,351.31h-47.91v39.92h47.91v-39.92ZM447.13,407.2h-111.78v15.97h111.78v-15.97Z"/>
        <path class="cls-1" d="M463.1,0v239.53H47.91V0h415.19ZM447.13,15.97H63.88v175.66h271.47v-31.94h79.84v31.94h31.94V15.97ZM399.22,175.66h-47.91v15.97h47.91v-15.97ZM447.13,207.59H63.88v15.97h383.25v-15.97Z"/>
        <path class="cls-1" d="M191.63,287.44h47.91v47.91h-15.97v127.75h-15.97v-127.75h-17.96c-.32,0-.94,3.71-2.58,5.9-7.13,9.53-15.92,10.87-27.36,10.06v39.92h31.94v47.91h-15.97v55.89h-15.97v-55.89h-79.84v55.89h-15.97v-55.89h-15.97v-47.91h31.94v-39.92c-12.41,1.29-22.99-1.88-29.36-13.1-.61-1.07-.43-2.87-.58-2.87h-17.96v127.75h-15.97v-127.75H0v-47.91h47.91c.2-13.96,9.77-22.98,23.41-24,32.36-2.4,67.9,1.67,100.59.3,11.2,1.86,20.11,12.14,19.72,23.69ZM173.38,281.73c-1.47-1.47-5.05-2.14-7.15-2.33-29.5-2.68-62.99,2.15-92.92,0-5.9.54-8.78,2.38-9.46,8.51-.96,8.64-.95,30.32,0,38.97.68,6.15,3.6,7.98,9.46,8.51,29.95-2.14,63.39,2.65,92.92,0,6.72-.6,8.88-2.81,9.48-9.48.82-9.05.96-29.11-.03-38-.18-1.66-1.2-5.08-2.3-6.18ZM47.91,303.41H15.97v15.97h31.94v-15.97ZM223.56,303.41h-31.94v15.97h31.94v-15.97ZM143.72,351.31h-47.91v39.92h47.91v-39.92ZM175.66,407.2H63.88v15.97h111.78v-15.97Z"/>
      </g>
    </g>
  </g>
</svg>