<?xml version="1.0" encoding="UTF-8"?>
<svg id="Layer_2" xmlns="http://www.w3.org/2000/svg" version="1.1" viewBox="0 0 199.3 199.3">
  <!-- Generator: Adobe Illustrator 29.0.1, SVG Export Plug-In . SVG Version: 2.1.0 Build 192)  -->
  <defs>
    <style>
      .st0 {
        fill: #00a651;
      }
    </style>
  </defs>
  <g id="Ss10vJ">
    <g>
      <path class="st0" d="M62.3,3.9c1.2.8,2.1,1.1,2.3,2.8.8,6.6-.7,14.8,0,21.6,4.2,5.4,8.8,10.5,12.6,16.2v26.3h6.3v-15.9c0-.4.6-1.7.9-2.1,1-1.5,8.8-8.1,8.8-8.8v-8.4h-7.7c0,0-1.3-1.2-1.5-1.5-.8-1.3-.4-4.1-.2-5.7,1.2-8.9,7.1-17.1,15-21.2,3.3-1.8,6.7-2.6,10.3-3.3h35.9c1.2,1,2.1,1.5,2.2,3.2.3,2.8.3,9.9,0,12.7-.2,1.7-1,3-2.8,3.2-3.5.4-8.3-.6-11.6,0-.7.1-4.2,2.8-4.3,3.2-.3,1.3,8.3,15.2,8.5,18l-5.6,2.6-7.9-16.4c-.4-.3-5,3.2-5.2,4.3s0,8.8.2,9.5l15,14.9c.2.3.9,1.4.9,1.7v9.9h13.3c1.7,0,2.6,2.6,2.8,4,.3,2.3.3,11.9-.6,13.6-1.4,2.8-6.8,1-9.5,1.6l-6.4,48.6c4,.4,7.3,3,11.4,3.4,6.5.5,9.6-2.8,15.4-3.7,10.5-1.7,22.1.9,26.4,11.7,2.1,5.3,1.9,21.6,1.4,27.7-1.2,15-16,20.1-29.2,17.2-4.1-.9-7.4-3.4-11.7-3.6-5.8-.2-10.1,3.5-15.8,4.1-7.6.7-15.9,0-21.1-6.1l-74.9-.2-2.7-.9-13.2-97.6c-.6-1.7-7.4.7-9.2-1.6-.3-.4-.7-1.3-.8-1.8-.3-2.2-.3-11.2,0-13.3.2-1.2,1.5-2.9,2.7-2.9h13.3v-26.3c3.8-5.6,8.5-10.7,12.6-16.2.8-6.8-.7-15,0-21.6.2-1.7,1.1-2,2.3-2.8h21.4ZM58.1,10.2h-12.7v16.1h12.7V10.2ZM128.4,10.2h-18.5c-1,0-4.9,1.4-6,1.8-7.3,3-12.2,9.5-13.6,17.3h24.5l13.6-11v-8h0ZM141.1,10.2h-6.3v6.3h6.3v-6.3ZM67.1,42l-7.4-9.3c-5.4,0-11.1-.5-16.4.3l-6.9,9h30.7ZM112.3,35.7h-12.7v6.3h12.7v-6.3ZM70.9,48.4h-38.1v22.4h38.1v-22.4ZM128.4,70.8v-8c-5-4.7-9.6-10.1-14.8-14.4h-15.6l-8.1,8v14.4h38.5ZM42.1,77.1h-25.4v6.3h25.4v-6.3ZM93.3,77.1h-44.3s-.6.5-.6.6v69.5c0,.2.5,2.4.7,2.7.8,2.2,3.7,4.1,6.1,3.8v-28.8h5.8s.6.5.6.6v28.2h6.3v-28.8h6.3v28.8h6.3v-28.8h6.3v28.8c3,.1,5.9-2.6,6.3-5.5,1.3-9.8-.9-22.4,0-32.5.2-2.1,1.5-3.8,3.8-3.4,5.1.9,19.5,14,19,1.6l-.9-1.4-19.8-10c-.6-.2-2-1.7-2-2.1v-23.4h0ZM144.1,77.1h-44.5v6.3h44.5v-6.3ZM42.1,89.8h-15.3l12,92.7h68.4c-.5-2-1-4.1-1.1-6.1-.4-5.8-.6-20.1.9-25.2,2.9-9.3,11.9-13.7,21.2-13.7l5.8-47.6h-34.2v7.8l19,9.6c5.5,4.5,5.4,12.9-.6,16.9-6.6,4.4-12.4-1-18.4-3.3v28.2c0,4.5-5.9,10.5-10.4,10.9-11.3-.5-24.2,1.2-35.4.2-6.1-.6-11.8-6.2-11.8-12.5v-57.7h0v-.2ZM125.4,144.1c-17.3,1.4-17.1,24.3,0,25.7,11.5.9,17.2-6.8,29.2-3.1,6.3,1.9,8.2,3.7,15.5,3.1,17-1.6,16.8-25-1.4-25.8-10.4-.4-15.8,6.3-27,3.5-6.5-1.6-8.5-4-16.2-3.4ZM182.6,171.3c-6,5-14.6,5.8-22.1,4.4-5.2-1-8-3.9-13.9-3.6-4.4.2-7.4,2.6-11.4,3.5-7.6,1.7-16.6.8-22.7-4.2v6.2c0,4.2,4.6,9.2,8.5,10.6,12.4,4.3,20.1-5.9,32.7-2.4,6.6,1.8,8.4,3.8,16.2,3.3,5.8-.4,12.9-5,12.9-11.4v-6.2h0l-.2-.2Z"/>
      <rect class="st0" x="134.8" y="150.8" width="6.3" height="6.3"/>
      <rect class="st0" x="122.1" y="153.8" width="6.3" height="6.3"/>
      <rect class="st0" x="153.8" y="153.8" width="6.3" height="6.3"/>
      <path class="st0" d="M172.9,150.8v6.3h-5.8s-.6-.5-.6-.6v-5.8h6.4Z"/>
    </g>
  </g>
</svg>