<?xml version="1.0" encoding="UTF-8"?>
<svg id="Layer_2" data-name="Layer 2" xmlns="http://www.w3.org/2000/svg" viewBox="0 0 511.16 511.2">
  <defs>
    <style>
      .cls-1 {
        fill: #fff;
      }
    </style>
  </defs>
  <g id="Layer_1-2" data-name="Layer 1">
    <g id="_8of4sq" data-name="8of4sq">
      <g>
        <path class="cls-1" d="M20.12,511.2c-21.74-5.89-28.09-35.2-7.9-47.33,1.23-.74,6.59-3.58,7.4-3.58h39.42c-16.75-14.45-30.36-34.86-32.92-57.4-6.31-55.39,38.58-100.57,93.76-96.34,3.65-26.64,34.97-29.08,49.44-8.96L461.24,5.66c24.2-18.28,54.75,11.43,35.93,35.93L205.83,333.19c-.19,1.09,8.69,9.84,10.11,12.63,8.51,16.72-2.48,34.6-20.04,37.76-.23,8.31.19,16.59-1.13,24.82,8.27.14,16.76.55,24.71,2.74,21.11,5.8,36.67,27.36,36.17,49.16h57.89l-23.2-120.52c-27.89-10.25-21.03-49.2,8.23-50.15-.9-13.25,7.01-23.97,18.08-30.32,1.88-1.08,6.88-2.19,7.62-2.85.44-.39,3.47-8.48,4.82-10.66,6.07-9.8,17.38-15.82,28.86-16.13,2.53-.07,5.48,1.75,7.8.96.9-.31,4.02-4.94,5.66-6.38,28.78-25.22,71.47-5.31,72.04,32.28,14.35,4.79,25.83,17.3,24.79,33.09,19.5.18,32.29,20.72,22.8,38.27-3.74,6.91-9.7,8.98-15.62,13.32l-22.15,119.08h38.42c.46,0,5.17,2.28,6.17,2.81,7.23,3.79,10.65,9.69,13.29,17.15v10.98c-3.66,10.32-9.7,16.32-19.96,19.96H20.12ZM474.96,17.36L182.74,308.07c-.98.86-1.1,1.35-.5,2.52.34.66,9.86,10.22,10.54,10.52l2-1.02L482.74,32.16c5.83-6.47,1.47-16.84-7.78-14.8ZM451.28,289.63c-.02-6.86-4.17-13.48-10.74-15.71-4.98-1.68-11.78-.16-14.64-5.33-2.31-4.16.17-9.04.05-13.23-.6-20.87-24.56-32.71-41.01-19.6-3.76,3-9.45,12.91-12.21,13.74-5.04,1.5-7.16-1.19-10.83-1.73-7.59-1.12-16.58,1.77-19.48,9.35-1.87,4.88-.75,13-6.87,15.08-3.22,1.09-7.09.66-10.73,2.24-5.42,2.35-9.47,9.26-9.27,15.18h135.73ZM142.61,301.81c-5.19,1.13-7.37,7.97-4.77,12.34l51,50.79c8.03,5.16,16.85-5.27,10.47-12.47l-48.94-48.86c-2.19-2.01-4.88-2.43-7.76-1.8ZM297.32,306.84c-10.38,1.86-9.96,15.5.74,16.75h170.71c11.77-1.96,10.66-16.16-1.02-16.99l-170.43.23ZM176.81,408.4c2.52-9.77,2.84-20.07.47-29.91l-53-52.8c-56.61-11.91-101.05,48.42-72.75,99.7,9.68,17.54,34.4,34.91,54.91,34.91h132.24c-.82-13.62-7.52-25.61-20.28-31.12-15.15-6.54-39.38-.81-56.09-2.79-13.46-1.6-9.58-17.99.02-17.99h14.47ZM458.27,340.53h-149.71l22.9,119.32h103.91l22.9-119.32ZM23.82,477.48c-10.98,4.48-7.46,16.73,3.74,16.79,153.47-.53,307.12.87,460.47-.7,7.99-3.09,7.98-12.4.22-15.86l-464.43-.24Z"/>
        <path class="cls-1" d="M227.44.4c4.73-1.03,8.15,1.11,10.49,5.05,3.24,40.51,16.42,72.8,60.27,79.46,6.31.96,16.97-1.54,17.3,8.71.38,11.85-18.06,8.93-26.13,10.65-29.66,6.34-44.53,32.47-49.39,60.4-1.27,7.32.7,23.25-9.77,23.22-11.15-.04-8.44-13.89-9.75-21.24-5.7-31.94-20.81-58.26-55.4-63.37-7.47-1.1-20.37,1.93-20.29-9.77.08-10.78,16.37-8.24,24.26-9.77,29.08-5.63,44.72-29,50.21-56.58,1.44-7.24.57-25.1,8.2-26.76ZM266.63,95c.66-.96-.34-1.8-1.03-2.44-2.38-2.19-8.17-4.86-11.41-7.56-10.32-8.6-18.98-20.2-23.5-32.9-.85-.64-4.75,8.52-5.56,9.9-7.57,12.79-18.53,24.99-32.35,31.03,16.28,11.09,29.88,24.34,37.42,42.91,5.81-15.3,16.46-27.84,29.53-37.34,1.41-1.02,6.67-3.28,6.89-3.6Z"/>
        <path class="cls-1" d="M57.77,128.14c3.59-.79,7.93.39,9.51,4.05,2.37,5.5,2.28,17.13,4.48,24.46,4.55,15.16,14.09,26.58,29.97,29.91,6.18,1.3,17.42-.24,17.9,8.91.59,11.31-14.54,8.91-22.21,11.28-17.54,5.41-24.71,22.03-28.12,38.75-1.26,6.17.62,14.69-5.9,18.05-4.62,2.39-9.09.15-11.58-4.12-1.27-19.97-7.28-44.95-28.43-52.42-7.91-2.79-22.84.09-23.3-10.72s11.62-8.25,18.29-9.7c18.32-3.98,28.01-20.07,31.4-37.46,1.32-6.76-.5-19.12,7.98-20.99ZM59.06,218.77c5.67-8.37,11.39-16.65,19.93-22.45-8.23-6.35-13.88-13.76-19.45-22.45-4.42,9.07-11.57,16.34-19.45,22.46,8.19,5.34,15.75,13.01,18.97,22.45Z"/>
        <path class="cls-1" d="M470.98,188.07c41.95-7.05,41.07,55.97,2.02,50.4-28.53-4.07-27.56-46.11-2.02-50.4ZM482.9,219.45c6.19-5.66.63-17.93-9.41-13.89-11.27,4.54-.27,22.74,9.41,13.89Z"/>
        <path class="cls-1" d="M433.12,136.15c34.18-1.84,36.3,51.05,1.68,51.76-32.71.67-34.68-49.98-1.68-51.76ZM432.03,154.11c-9.21,2.11-6.75,17.3,3.43,16.21,11.29-1.21,9.03-19.07-3.43-16.21Z"/>
        <path class="cls-1" d="M57.77,17.36c2.92-.64,4.76-.2,7.22,1.35,1.58,1,14.15,13.64,14.88,15.05,3.2,6.17-1.34,14.03-8.25,13.34-4.92-.49-19.45-14.95-20.37-19.7-.81-4.22,2.28-9.1,6.52-10.03Z"/>
        <path class="cls-1" d="M96.73,55.26c4.91-.8,18.99,12.37,21.07,16.43,4.31,8.38-2.14,15.78-10.81,12.8-2.24-.77-14.46-12.72-15.86-15.07-3.46-5.82-1.38-13.02,5.6-14.16Z"/>
        <path class="cls-1" d="M108.67,17.36c7.22-1.6,13.39,5.28,10.03,12.05-.84,1.7-14.72,15.72-16.36,16.57-8.28,4.31-15.75-4.47-11.78-11.77,1.22-2.24,15.93-16.37,18.12-16.85Z"/>
        <path class="cls-1" d="M72.54,55.57c6.71.18,10.49,6.8,7.34,12.87-.64,1.23-14.82,15.63-15.85,16.07-7.96,3.4-15.89-4.11-11.83-11.83.64-1.21,13.99-14.8,15.31-15.62,1.41-.88,3.4-1.53,5.04-1.49Z"/>
        <path class="cls-1" d="M391.13,357.74c4.6-.83,23.01-.91,27.48,0,10.39,2.1,10.1,15.65-1.01,17.5-5.1.85-24.23.87-28.68-.79-8.53-3.18-6.97-15.05,2.2-16.7Z"/>
        <path class="cls-1" d="M339.21,357.71c6.13-1.38,24.4-1.78,26.79,5.73,4.26,13.39-15.88,12.95-24.01,12.03-12.66-1.45-12.28-15.61-2.79-17.75Z"/>
      </g>
    </g>
  </g>
</svg>