<?xml version="1.0" encoding="UTF-8"?>
<svg id="Layer_2" data-name="Layer 2" xmlns="http://www.w3.org/2000/svg" viewBox="0 0 175.69 193.31">
  <defs>
    <style>
      .cls-1 {
        fill: #00a651;
      }
    </style>
  </defs>
  <g id="Layer_1-2" data-name="Layer 1">
    <g id="dMyhFP">
      <g>
        <path class="cls-1" d="M2.13,193.31c-2.99-.82-2.61-6.42-.19-6.42h6.61V63.22c0-.48,1.97-2.45,2.45-2.45h27.75v-27c0-1.51,2.07-3.59,3.59-3.59h9.63v-14.92c0-.85,2.48-2.45,3.21-2.45h14.16V2.43c0-1.73,4.14-3.71,5.85-1.32.21.3.95,2.23.95,2.45v9.25h13.78c1.52,0,3.59,2.08,3.59,3.59v13.78h6.42v-15.29c0-1.19,3.29-2,4.33-2.09,18.7-1.59,39.62,1.23,58.56,0,1.21-.19,4.33,1.22,4.33,2.47v171.62h6.61c2.42,0,2.8,5.6-.19,6.42H2.13ZM86.71,19.61h-28.32v10.57h28.32v-10.57ZM160.72,19.61h-54.38v80.05h10.95c.22,0-.81-2.64,1.74-3.74,1.07-.46,1.57-.62,2.7-.13,2.32,1,1.83,3.7,1.99,3.87.22.23,6.2.23,6.42,0,.08-.09-.04-1.51.43-2.41,1.64-3.21,6.37-1.33,6.37,1.46v88.17h23.22s.57-.53.57-.57V19.61ZM99.55,36.98h-54v23.79h27.75c.19,0,1.82,1.03,2.04,1.36.41.62.59,2.58.84,2.75,1.74,1.13,14.09-2.4,12.72,4.3-.15.75-1.76,2.54-2.39,2.54h-10.38v10.57h9.25c2.41,0,4.39,2.73,3.16,5.05-.24.45-1.67,1.75-2.03,1.75h-10.38v10.57h23.41v-62.68ZM69.34,67.19H15.53s-.57.53-.57.57v118.57s.53.57.57.57h14.54v-14.16c0-1.09,1.51-3.33,2.81-3.23,5.73.68,13.39-.86,18.88.04.94.15,2.48,1.59,2.48,2.43v14.92h15.1v-119.7ZM130.14,106.46h-54v80.43h54v-80.43ZM47.44,175.94h-10.57v10.95h1.89v-5.48c0-2.65,3.69-4.32,5.76-2.47.22.2,1.03,1.62,1.03,1.72v6.23h1.89v-10.95Z"/>
        <path class="cls-1" d="M132.67,52.16c6.05-1.35,5.79,12.62-.29,10.71-3.18-1-3.42-9.89.29-10.71Z"/>
        <path class="cls-1" d="M131.01,40.26c-1.47-1.6-1.45-8.08.74-9.41,5.74-3.49,7.03,9.42,2.72,10.27-1.09.21-2.69-.02-3.46-.87Z"/>
        <path class="cls-1" d="M132.29,74.07c6.09-1.4,5.5,8.7,2.96,10.13-6.13,3.46-6.71-9.27-2.96-10.13Z"/>
        <path class="cls-1" d="M144.23,139.81c1.82-1.66,4.93-.72,5.47,1.66.24,1.05.24,4.83,0,5.88-.66,2.96-5.26,3.44-6.18.67-.48-1.44-.46-7.15.71-8.21Z"/>
        <path class="cls-1" d="M144.23,62.16c-1.3-1.19-1.32-7.96-.1-9.11,1.86-1.75,5.02-.88,5.56,1.57.24,1.05.24,4.83,0,5.88-.53,2.38-3.64,3.32-5.47,1.66Z"/>
        <path class="cls-1" d="M118.17,62.16c-1.3-1.19-1.32-7.96-.1-9.11,1.86-1.75,5.02-.88,5.56,1.57.24,1.05.24,4.83,0,5.88-.53,2.38-3.64,3.32-5.47,1.66Z"/>
        <path class="cls-1" d="M146.57,30.36c3.79.1,3.51,4.87,3.23,7.58-.43,4.09-5.39,4.15-6.27,1.32-.32-1.03-.35-6.27.03-7.19s2.01-1.74,3.02-1.71Z"/>
        <path class="cls-1" d="M145.51,160.91c1.89-.42,3.87.35,4.24,2.39.19,1.06.16,5.24-.15,6.23-.86,2.76-5.71,2.59-6.24-.22-.42-2.19-.58-7.8,2.15-8.41Z"/>
        <path class="cls-1" d="M144.23,96.38c1.82-1.66,4.93-.72,5.47,1.66.24,1.05.24,4.83,0,5.88-.55,2.45-3.7,3.32-5.56,1.57-1.23-1.15-1.2-7.92.1-9.11Z"/>
        <path class="cls-1" d="M145.13,74.06c1.9-.56,4.24.27,4.62,2.39.18,1,.17,4.98-.07,5.93-.72,2.86-5.54,3.15-6.25.01-.43-1.93-.62-7.65,1.7-8.34Z"/>
        <path class="cls-1" d="M119.07,74.06c5.03-1.49,5.23,4.59,4.56,7.95s-5.51,3.32-6.25.76c-.22-.76-.24-5.84-.07-6.71.12-.65,1.15-1.82,1.77-2.01Z"/>
        <path class="cls-1" d="M145.51,117.49c1.89-.42,3.87.35,4.24,2.39.19,1.03.16,4.93-.06,5.94-.66,2.97-5.79,2.93-6.33.07-.42-2.19-.58-7.8,2.15-8.41Z"/>
        <path class="cls-1" d="M120.51,30.36c4.8.13,3.87,9.75,1.34,10.6-5.06,1.7-4.9-4.3-4.58-7.6.17-1.74,1.37-3.05,3.24-3Z"/>
        <path class="cls-1" d="M41.68,147.68c4.88-.81,4.99,8.6,2.34,10.3-5.89,3.79-7.42-9.46-2.34-10.3Z"/>
        <path class="cls-1" d="M41.68,104.26c4.86-.93,4.93,8.28,2.55,10.13-5.57,4.34-8.03-9.08-2.55-10.13Z"/>
        <path class="cls-1" d="M40.91,82.75c4.95-1.47,5.23,4.59,4.56,7.95-.59,2.93-4.5,3.6-5.96,1.23-1.22-1.98-1.27-8.39,1.41-9.18Z"/>
        <path class="cls-1" d="M44.68,126.97c1.39,1.52,1.47,8.4-.72,9.42-6.36,2.96-6.66-9.51-2.73-10.29,1.09-.21,2.69.02,3.46.87Z"/>
        <path class="cls-1" d="M54.51,104.26c1.59-.33,3.58.69,3.85,2.41.18,1.16.19,5.59-.14,6.61-.87,2.66-5.69,2.41-6.23-.99-.38-2.39-.51-7.41,2.52-8.03Z"/>
        <path class="cls-1" d="M31.46,105.07c1.3,1.19,1.32,7.96.1,9.11-1.86,1.75-5.02.88-5.56-1.57-.24-1.05-.24-4.83,0-5.88.53-2.38,3.64-3.32,5.47-1.66Z"/>
        <path class="cls-1" d="M28.07,126.17c1.93-.45,3.91.31,4.24,2.4.16,1.02.19,5.46-.06,6.32-.77,2.66-5.8,2.61-6.32-.7-.34-2.18-.56-7.39,2.14-8.02Z"/>
        <path class="cls-1" d="M31.46,148.49c1.16,1.06,1.19,6.77.71,8.21-.92,2.77-5.51,2.29-6.18-.67-.24-1.05-.23-4.83,0-5.88.52-2.31,3.7-3.27,5.47-1.66Z"/>
        <path class="cls-1" d="M57.52,148.49c1.16,1.06,1.19,6.77.71,8.21-.92,2.77-5.51,2.29-6.18-.67-.24-1.05-.23-4.83,0-5.88.52-2.31,3.7-3.27,5.47-1.66Z"/>
        <path class="cls-1" d="M54.13,82.75c1.66-.39,3.89.1,4.26,2,.17.87.15,5.95-.07,6.71-.74,2.54-5.56,2.67-6.25-.76-.44-2.16-.62-7.32,2.07-7.95Z"/>
        <path class="cls-1" d="M28.07,82.75c1.66-.39,3.89.1,4.26,2,.19.99.15,5.34-.07,6.33-.72,3.22-5.74,2.86-6.32-.32-.39-2.15-.51-7.4,2.14-8.02Z"/>
        <path class="cls-1" d="M54.13,126.17c1.94-.44,3.91.31,4.24,2.4.16,1.02.19,5.46-.06,6.32-.79,2.72-5.73,2.55-6.32-.7-.38-2.06-.44-7.43,2.14-8.02Z"/>
        <path class="cls-1" d="M115.31,112.94c3.08-.63,4.05,2.13,4.27,4.64,1.58,18.7-1.21,39.61-.02,58.54,0,4.27-4.97,5.91-6.61,1.71l-.19-61.76c-.01-1.29,1.32-2.88,2.55-3.14Z"/>
        <path class="cls-1" d="M89.25,112.94c3.08-.63,4.05,2.13,4.27,4.64,1.58,18.7-1.21,39.61-.02,58.54,0,4.27-4.97,5.91-6.61,1.71l-.19-61.76c-.01-1.29,1.32-2.88,2.55-3.14Z"/>
        <path class="cls-1" d="M102.48,112.95c1.73-.33,2.96.7,3.7,2.17l.18,61.77c-.36,3.58-4.17,4.58-6.23,1.68l-.2-62.87c-.07-1.42,1.27-2.51,2.56-2.75Z"/>
        <path class="cls-1" d="M59.81,47.65c4.45-.7,21-.68,25.54-.07s5,5.48.77,6.74h-26.76c-4-.62-4.15-5.96.45-6.68Z"/>
      </g>
    </g>
  </g>
</svg>