<?xml version="1.0" encoding="UTF-8"?>
<svg id="Layer_2" xmlns="http://www.w3.org/2000/svg" version="1.1" viewBox="0 0 199.3 199.3">
  <!-- Generator: Adobe Illustrator 29.0.1, SVG Export Plug-In . SVG Version: 2.1.0 Build 192)  -->
  <defs>
    <style>
      .st0 {
        fill: #00a651;
      }
    </style>
  </defs>
  <g id="b5WUHN">
    <g>
      <path class="st0" d="M92.6,3.9v26.9l12.7-2.2v26.9h77.4v128.7h12.7v11.2H3.9v-11.2h12.7V43.7c.2-.2.3-.4.6-.5,1.7-.6,12-1.5,12.4-2V3.9h63ZM81.3,15.1h-40.4v24.3l40.4-6.7V15.1ZM94.1,42.1l-66.2,10.8v131.3h14.6v-25.8h37v25.8h14.6V42.1h0ZM171.5,66.8h-66.2v117.5h66.2v-117.5ZM68.3,169.6h-14.6v14.6h14.6v-14.6Z"/>
      <rect class="st0" x="68.3" y="55.5" width="11.2" height="11.2"/>
      <rect class="st0" x="42.4" y="132.6" width="11.2" height="11.2"/>
      <rect class="st0" x="68.3" y="132.6" width="11.2" height="11.2"/>
      <path class="st0" d="M53.7,81.3v11.2h-10.7s-.6-.5-.6-.6v-10.7h11.3Z"/>
      <path class="st0" d="M79.5,81.3v11.2h-10.7s-.6-.5-.6-.6v-10.7h11.3Z"/>
      <path class="st0" d="M53.7,106.8v11.2h-11.2v-10.7s.5-.6.6-.6h10.7,0Z"/>
      <path class="st0" d="M79.5,106.8v11.2h-11.2v-10.7s.5-.6.6-.6h10.7,0Z"/>
      <rect class="st0" x="119.9" y="132.6" width="11.2" height="11.2"/>
      <rect class="st0" x="145.7" y="132.6" width="11.2" height="11.2"/>
      <rect class="st0" x="119.9" y="158.4" width="11.2" height="11.2"/>
      <rect class="st0" x="145.7" y="158.4" width="11.2" height="11.2"/>
      <path class="st0" d="M131.1,81.3v10.7s-.5.6-.6.6h-10.7v-11.2h11.3Z"/>
      <path class="st0" d="M156.9,81.3v10.7s-.5.6-.6.6h-10.7v-11.2h11.3Z"/>
      <path class="st0" d="M131.1,118h-11.2v-11.2h10.7s.6.5.6.6v10.7h-.1Z"/>
      <path class="st0" d="M156.9,118h-11.2v-11.2h10.7s.6.5.6.6v10.7h-.1Z"/>
    </g>
  </g>
</svg>