<?xml version="1.0" encoding="UTF-8"?>
<svg id="Layer_2" xmlns="http://www.w3.org/2000/svg" version="1.1" viewBox="0 0 199.3 199.3">
  <!-- Generator: Adobe Illustrator 29.0.1, SVG Export Plug-In . SVG Version: 2.1.0 Build 192)  -->
  <defs>
    <style>
      .st0 {
        fill: #00a651;
      }
    </style>
  </defs>
  <g id="eFzbH4">
    <g>
      <path class="st0" d="M14.8,12.5h169c6.3.6,11.5,5.8,12.2,12.1v150.1c-.7,5.7-5,10.3-10.5,11.8-56.5.8-113,0-169.5.4-7.5-.9-12.3-7.3-12.6-14.7V27.1c.2-6.9,4.5-13.1,11.5-14.6h0ZM189.4,43.4v-18.8c0-1.8-3.9-5.7-6-5.6l-168,.2c-2,.8-3.5,1.8-4.4,3.8-.2.4-.9,2.6-.9,2.8v17.6h179.4,0ZM189.4,50.1H10.6l-.6.6v122.7c0,2.1,2.9,5.9,5.1,6.5,56.4.5,113.2.6,169.6,0,1.5-.4,4.7-3.8,4.7-5.2V50h0Z"/>
      <path class="st0" d="M126.6,127.2c1.2,1.2,4.5.6,5.6,3.2.8,2,1,10-.8,11.5-1,.8-4.5,1.4-5,2.1-.2.3-2.3,5.5-2.4,5.8,0,1.4,2.6,3.9,1.8,6.4-.3,1.1-6.5,7.1-7.6,7.3-2.5.5-4.3-1.7-6.1-1.6-.3,0-5.4,1.9-5.8,2.1-1.3.7-1.4,5.2-3.5,6-1.1.4-9.4.4-10.3,0-2-.8-2.1-4.5-3.1-5.6-.2-.2-5-2.3-5.5-2.4-2.4-.5-4.2,2.3-7.2,1.4s-6.3-5.8-6.8-6.9c-1.4-3,1.6-4.9,1.5-6.8,0-.3-2.3-5.6-2.5-5.8s-4.4-2.1-4.8-2.2c-6.2-1.3-10.4-.5-17.1-3.2-38.4-15.6-31.8-73.1,9-79.4,26.4-4.1,45.4,14.1,48.4,39.4.3,2.3-.3,6,1.5,8.1.2.3,5.8,2.7,6.2,2.7,1.6,0,3.6-2.6,6.4-1.7.7.2,6.5,5.9,6.9,6.7,1.5,2.9-1.7,4.9-1.5,6.9,0,.3,2.3,5.7,2.5,6h.2ZM74,79.8c-.9-4.6-5.4-14.5-10.9-14.5s-9.9,9.9-11.4,14.5h22.3ZM49.7,68.3c-4.9,1.6-9.9,5.4-13.2,9.3-.4.5-3.3,4-2.9,4.3l11.1-1.3c1.2-4.3,2.5-8.6,5-12.3ZM92.6,81.9c-3.7-6.1-9.4-11.2-16.1-13.6,2.2,3.8,3.5,8,5,12.2l11.2,1.4h0ZM50.1,86.4c-.7,5.3-1.5,10.9-1.3,16.3,0,2.5.4,6.6.9,9,0,.5.3,1.6.6,1.9.7.8,6.3.3,7.9.4,1,0,1.9.4,2.9.4,1.8,0,7.9,0,9.3-.6.6-.3,6.5-6.4,6.6-7,.5-2.4.2-10,0-12.8,0-1.1-.7-6.8-1-7.2-.5-.8-6.5-.3-7.9-.4-1,0-1.9-.4-2.9-.4-5,0-10,.7-15.1.4h0ZM43.5,87.3c-4.6.5-9.2,1.1-13.7,2.3-2.2,7-2.3,14.6.1,21.6l13.6,2.1c-1.7-8.5-1.7-17.5,0-26h0ZM96.3,89.4l-13.6-2.1c1.1,7.2,1.2,14.7.4,21.9.2.2,5.8-2,6.2-2.3.9-.7,1.1-2.9,1.7-4.1,1.6-2.7,4.3-1.8,7-1.9,0-3.9-.8-7.7-1.7-11.5h0ZM94.6,111.9c-1.1,1.2-8.7,3-10.6,4.5-2.1.3-3.6-2.3-5.6-1.1-2.8,1.6-.3,3,0,4.9.5,2.5-1.3,4.1-2.2,6.3s-.9,4.9-3.2,6.3c-1.7,1-4.1.7-3.6,3.4.3,1.4,2.7,1.6,3.9,2.4,2.2,1.5,2,3.8,3,6.1s2.7,3.6,2.2,6.3c-.4,1.8-2.9,3.3,0,4.9,1.7,1,3.2-.9,4.7-1.1,1.5-.2,4.6,1.8,6.2,2.5,2.1.9,4.2.7,5.5,2.7,1.2,1.9.4,4.4,3.8,3.7,1.4-.3,1.3-2.3,1.9-3.5,1.3-2.3,3.5-2,5.7-3,1.4-.6,4-2.3,5.4-2.5,2.5-.3,4.5,3.3,6.7,0,.8-1.2-1-2.7-1.3-4.2-.4-2.5,1.3-3.6,2.1-5.7,1-2.4,1.1-5.2,3.4-6.6,1.7-1,4.1-.7,3.6-3.4-.3-1.4-2.7-1.6-3.9-2.4-2.2-1.5-2-3.9-3-6.1s-2.6-3.5-2.1-6.2c.4-1.8,2.8-3.8-.2-5.2-1.2-.5-3.4,1.3-4.8,1.3s-2.6-1.2-3.9-1.7c-2-.8-6.6-1.9-7.6-3.5-.7-1.2-.5-3.4-2.1-3.7-3.7-.7-2.4,2.6-4.1,4.4h0v.2ZM44.6,120c-3.7,0-7.5-1.4-11.1-1.1,3.7,6,9.4,11,16.1,13.4-2.3-3.8-3.7-8.1-5-12.3h0ZM71.6,120.7h-19.8c1.5,4.5,5.2,13.7,10.5,14.5,1.1.1.5-2,.7-3,.9-4.9,4.5-3.1,6.1-5,.2-.3,2.7-6.2,2.4-6.4h0Z"/>
      <path class="st0" d="M144.3,74.2c.5-3.1,3.6-6.3,6.5-7.1,3.4-1,18.6-1,21.7.3,2.7,1.1,5.1,4,5.5,6.9.6,3.5.5,14.4,0,18.1-.8,7.5-8.2,8.9-14.5,8.5l-.2,35.2c-.5,1.3-1.5,1.9-2.9,2.1-6.7.8-15-.5-21.8,0-3.8-.8-2.3-6.5.7-6.5h17.6v-30.6c-8.4.7-14-4.2-12.8-12.8h-33.7c-4.4-.5-3.9-5.7,0-6.6h33.7c.2-2.3-.3-5.1,0-7.2h0l.2-.3ZM153.3,73.3c-1.3.3-2.2,1.3-2.4,2.6-.4,3-.3,12.2,0,15.3.3,2.7,2,2.9,4.3,3.1,2.5.2,13.8.3,15.3-.8.7-.5.9-1.5,1-2.3.4-3.1.4-12.3,0-15.3-.2-1.7-1.5-2.5-3.1-2.7-2.4-.3-13.1-.4-15.2,0h0Z"/>
      <path class="st0" d="M118.2,27.8h50.8c4.2.3,4.4,6,0,6.5h-50c-3.8-.3-4.3-5.3-.7-6.5h-.1Z"/>
      <path class="st0" d="M45.4,27.8c5-1.1,6.9,5,2.6,6.3-5.5,1.7-6.7-5.4-2.6-6.3Z"/>
      <path class="st0" d="M64,27.8c5.2-1.2,6.3,5.2,2.6,6.3-5.5,1.7-6.6-5.4-2.6-6.3Z"/>
      <path class="st0" d="M30.9,33.4c-2.4,2.6-7.6,0-6.2-3.5,2.2-5.1,10-.7,6.2,3.5Z"/>
      <path class="st0" d="M95.4,118.8c23.2-2.8,26,31.2,4.8,33.7-23,2.7-26.1-31.2-4.8-33.7ZM95.8,125.4c-12.4,2-10.4,22.7,3.9,20.5,12.8-2,10.3-22.8-3.9-20.5Z"/>
    </g>
  </g>
</svg>