<?xml version="1.0" encoding="UTF-8"?>
<svg id="Layer_2" data-name="Layer 2" xmlns="http://www.w3.org/2000/svg" viewBox="0 0 511.03 512.18">
  <defs>
    <style>
      .cls-1 {
        fill: #00a651;
      }
    </style>
  </defs>
  <g id="Layer_1-2" data-name="Layer 1">
    <g id="WBah9E">
      <g>
        <path class="cls-1" d="M7.01,512.18c-4.07-2.51-6.4-4.31-7.01-9.46l.5-203.15c.2-2.44,5.1-6.96,7.01-6.96h72.36v-38.42c0-3.36,5.52-6.54,8.44-7.53,5.12-1.75,37.92-8.2,39.01-9.9,7.97-53.89,49.34-96.05,102.26-107.33,5.32-1.13,10.63-1.25,15.84-2.63l.12-116.15c.83-6.33,4.31-8.92,10.45-9.51,37.53-3.59,80.73,2.83,118.87,0,7.08-.01,11.99,6.14,9.96,13.05-9.22,13.65-23.49,24.03-34.39,36.54l.87,1.89,32.55,33.35c4.16,4.34-1.04,15.03-6.04,15.03h-112.28v25.95c59.01,4.48,110.01,51.07,118.22,109.84,1.16,1.69,34.3,7.98,39.75,10.16,2.68,1.07,7.72,4.09,7.72,7.25v38.42h72.36c2.5,0,6.23,4.88,7.49,6.99v205.6c-2.02,3.39-3.6,4.97-6.99,6.99h-206.6c-6.49-2.88-9.7-11.27-4.44-16.92.55-.59,4.65-3.05,4.94-3.05h113.28v-19.96H99.83v19.96h113.28c.29,0,4.38,2.45,4.94,3.05,5.26,5.65,2.05,14.04-4.44,16.92H7.01ZM350.34,21.13h-84.83v59.88h84.83c-4.98-7.98-25.41-21.14-25.02-30.42.36-8.58,20.3-21.84,25.02-29.47ZM362.31,231.72c-7.81-35.18-33.82-65.14-67.62-77.59-62.86-23.15-130.34,12.39-145.98,77.08-.03,1.05,2.32.43,3.25.26,34.37-6.1,69.34-19,104.05-24.78l106.29,25.02ZM411.22,264.66l-155.2-37.01-156.2,37.01v27.95h311.39v-27.95ZM119.79,312.57H19.98v179.65h59.88v-19.96h-32.44c-3.59,0-7.09-5.96-7.51-9.46-1.01-8.5-1.01-32.47,0-40.97.67-5.6,3.91-8.82,9.48-9.48,8.5-1.01,32.47-1.01,40.97,0,3.5.42,9.46,3.92,9.46,7.51v32.44h19.96v-139.73ZM159.71,312.57h-19.96v139.73h19.96v-139.73ZM225.58,312.57h-45.91v139.73h45.91v-139.73ZM265.51,312.57h-19.96v139.73h19.96v-139.73ZM331.38,312.57h-45.91v139.73h45.91v-139.73ZM371.3,312.57h-19.96v139.73h19.96v-139.73ZM491.06,312.57h-99.81v139.73h19.96v-32.44c0-3.59,5.96-7.09,9.46-7.51,8.5-1.01,32.47-1.01,40.97,0,5.6.67,8.82,3.91,9.48,9.48,1.01,8.5,1.01,32.47,0,40.97-.42,3.5-3.92,9.46-7.51,9.46h-32.44v19.96h59.88v-179.65ZM79.87,432.33h-19.96v19.96h19.96v-19.96ZM451.14,432.33h-19.96v19.96h19.96v-19.96Z"/>
        <path class="cls-1" d="M258.52,512.18h-5.99c-8.9-3.47-9.55-16.95-.02-19.49,13.09-3.49,18.19,14.21,6.01,19.49Z"/>
        <path class="cls-1" d="M47.66,332.76c6.5-1.31,35.53-1.11,42.71-.25,5.6.67,8.82,3.91,9.48,9.48.79,6.63.94,37.94-.5,43.46-1.1,4.22-4.79,6.48-8.98,6.98-6.63.79-37.94.94-43.46-.5-4.22-1.1-6.48-4.79-6.98-8.98-1.01-8.5-1.01-32.46,0-40.97.54-4.52,3.14-8.3,7.74-9.23ZM79.87,352.49h-19.96v19.96h19.96v-19.96Z"/>
        <path class="cls-1" d="M418.94,332.76c6.5-1.31,35.53-1.11,42.71-.25,5.6.67,8.82,3.91,9.48,9.48.79,6.63.94,37.94-.5,43.46-1.1,4.22-4.79,6.48-8.98,6.98-6.63.79-37.94.94-43.46-.5-4.22-1.1-6.48-4.79-6.98-8.98-1.01-8.5-1.01-32.46,0-40.97.54-4.52,3.14-8.3,7.74-9.23ZM451.14,352.49h-19.96v19.96h19.96v-19.96Z"/>
      </g>
    </g>
  </g>
</svg>