<?xml version="1.0" encoding="UTF-8"?>
<svg id="Layer_2" xmlns="http://www.w3.org/2000/svg" version="1.1" viewBox="0 0 199.3 199.3">
  <!-- Generator: Adobe Illustrator 29.0.1, SVG Export Plug-In . SVG Version: 2.1.0 Build 192)  -->
  <defs>
    <style>
      .st0 {
        fill: #00a651;
      }
    </style>
  </defs>
  <g id="rSB24U">
    <g>
      <path class="st0" d="M51.4,143c4.9-5.4,12.1-5.6,18.1-8.3,7.4-3.3,8.1-10,7.7-17.3l-6-6.5c-7.7-10.6-7.2-21.4-6.9-34-9.7,1.2-14.4-5.8-12.7-14.9.8-4.1,5.2-7.8,9.5-7.6-.5-13.9-.4-26.5,8.9-37.6C88.8-5.9,125.6.2,135.8,27.7c3.3,8.8,2.5,17.4,2.5,26.7,14.9,1.2,12.3,25.4-3.2,22.6.5,14,.5,25.6-9.1,36.7-.7.8-3.8,3.3-3.8,3.5-.2.8,0,6,0,7.2,1.4,14,18.2,10.3,25.8,18.7v-5.8c0-1.1,2.3-2.2,3.3-2.5v-23.7c-.4-1.8-3.3-2.3-3.3-5.2l3.6-20.6c.7-1.4,1.7-1.6,3.1-1.7,2.9-.3,10.6-.4,13.3,0,.9,0,1.7.6,2.2,1.4l3.7,20.9c0,3-3,3.2-3.3,6-.7,7.2.6,15.6,0,22.9,0,.4,2.7.3,3.2,2.6s-.4,13.3,0,13.8c5.6-1,12.1,2.2,12.9,8.3,1.3,10.3-.9,23.2,0,33.8-.2,2.2-1.4,2.8-3.4,3-4.9.4-20.3.5-24.5-.9-1.5-.5-3-1.5-4.3-2.3,0,1.8-1.2,3.2-3,3.2l-104.5-.2c-1.3-.5-2-1.6-2-3-8.4,5.8-19.9,2.3-29.6,3.2-1.5-.2-2.6-1.5-2.7-3,1.1-10.5-1.5-24.1,0-34.1.9-5.9,7.3-8.9,12.8-7.9v-26.7c-.7-4-4.2-6.3-6.2-9.5-5.8-9.3-4.2-21.7,4-28.9,2.4-2.1,10.9-7.6,11.8-1.8.8,4.9-.6,11.4,0,16.4,2,2.2,4.8,2.2,6.4-.3.4-5-.6-10.8,0-15.7s5.9-2.5,8.6-.9c11.2,6.7,13.9,21.6,6.7,32.3-1.4,2-5.6,5.8-5.6,8.1v19.1h0l.2-.4ZM131.9,51.6v-13.5c0-4.4-3.8-12.5-6.5-16-16.1-21.4-50.5-14.5-56.9,11.4-.2.9-1,4-1,4.6v11.9l6.9-13.4,1.8-1.4h44l1.2.9,10.5,15.5h0ZM125.9,54.4l-8.3-12.5-1.2-.4h-37c-1,.4-5.6,11.2-6.7,12.9h53.2,0ZM64.3,60.8c-5.5-.5-7,.7-6.5,6.3.4,4.1,3.2,3.4,6.5,3.4v-9.7h0ZM128.7,60.8h-58v32c0,14.7,16.5,26.6,30.4,26,12.8-.5,27.6-12.6,27.6-26v-32ZM135.1,70.5c5.5.5,7-.7,6.5-6.3-.4-4.1-3.2-3.4-6.5-3.4v9.7h0ZM48.1,89.8v13.9c0,1.5-8.4,5.5-9.9,5.5s-9.5-4.1-9.5-5.5v-13.9c-5.9,4.6-8,12-5.2,19.1,2.3,5.6,7.4,7.6,8.3,14.7v27.2c5.7,1.2,2.5,8.9,3.3,13.1,3.5,0,6.8,1.3,9.7,3.2v-43.7c0-5.4,6.5-9.9,8.4-14.6,2.8-7,.7-14.5-5.2-19.1h.1ZM157.7,108.1v26.8h6.4v-26.8c0-.7,2.1-2.4,2.6-3,0-4.9-1.4-10.1-2.2-15.1l-7.2-.2c-.2,2.8-3.1,13.4-2.3,15.2.4.8,2.4,1.9,2.6,3h0ZM115.8,121.6c-10.5,4.8-21.7,4.8-32.2,0,.3,4.6-1.1,8.6-3.5,12.4-.9,1.4-2.9,2.3-2.5,4.1,11.5,7,25.1,8.7,37.7,3.3.9-.4,6.5-3.2,6.6-3.5.3-1.5-1.7-2.7-2.5-3.9-2.5-3.7-3.8-7.8-3.5-12.4h0ZM138.3,144.2c-3.1-.9-6.2-2.1-9.4-2.9-.4,0-.4-.5-.9,0l-2.7,23.5c-.2,1-1,1.7-1.9,2.1l-46.1.2c-1.6,0-2.9-.8-3.3-2.3l-2.7-23.5c-.5-.6-.5-.2-.9,0-3.2.8-6.3,2-9.4,2.9v45.5h6.4v-10.7c0-.8,2-2.5,3-2.2h58c1.1-.4,3.4,1.3,3.4,2.2v10.7h6.4v-45.5h0ZM167.3,141.4h-12.9v25.8c2.8-2,6.1-3.3,9.7-3.2.4-.4-.3-8.9,0-10.6.5-2.5,3.1-2.1,3.1-2.3v-9.7h0ZM121,145.8c-13.2,7-29.5,7-42.7,0l1.6,14.9h39.5l1.6-14.9ZM54.6,189.7v-40.3c-.7.4-1.4,1.8-1.7,2.5s-1.5,4.1-1.5,4.5v33.2h3.2ZM148,189.7v-33.2c0-.3-1.2-3.6-1.4-4.2l-1.8-2.8v40.3h3.2ZM28.8,157.5h-7.4c-2.3,0-2.5,4.8-2.2,6.4h9.7v-6.4h0ZM180.2,163.9c.3-1.6,0-6.4-2.2-6.4h-7.4v6.4h9.7-.1ZM19.2,189.7h17.9c.2,0,2.7-1.1,3.1-1.3,6.4-3.8,6.4-12.8,0-16.6-.4-.3-2.8-1.3-3.1-1.3h-17.9v19.3h0ZM180.2,170.4h-17.9c-.2,0-2.7,1.1-3.1,1.3-6.4,3.8-6.4,12.8,0,16.6.4.3,2.8,1.3,3.1,1.3h17.9v-19.3h0ZM125.5,183.2h-51.6v6.4h51.6v-6.4Z"/>
      <path class="st0" d="M93.2,96.3s0,.8.6,1.2c3.1,2.7,8.6,2.7,11.7,0,.5-.4.5-1.2.6-1.2h6.4c-1.2,13-24.6,12.9-25.8,0,1.1.2,5.9-.3,6.4,0h0Z"/>
      <path class="st0" d="M85.9,70.6c5.3-1.1,5.1,7.4,2.9,9-5.6,4-7.4-8-2.9-9Z"/>
      <path class="st0" d="M111.7,70.6c5.3-1.1,5.1,7.4,2.9,9-5.6,4-7.4-8-2.9-9Z"/>
    </g>
  </g>
</svg>