<?xml version="1.0" encoding="UTF-8"?>
<svg id="Layer_2" data-name="Layer 2" xmlns="http://www.w3.org/2000/svg" viewBox="0 0 510.86 511.07">
  <defs>
    <style>
      .cls-1 {
        fill: #00a651;
      }
    </style>
  </defs>
  <g id="Layer_1-2" data-name="Layer 1">
    <g id="Tk4XYQ">
      <g>
        <path class="cls-1" d="M510.86,238.39v33.93l-3.31,25.14c-17.62,106.81-103.29,192.5-210.09,210.09l-25.14,3.31c-11.22-.48-22.75.65-33.93,0C21.43,498.16-80.36,228.77,74.67,74.17,229.48-80.19,498.18,21.75,510.86,238.39ZM250.16,22.11C75.47,25.31-33.35,215.6,51.59,368.81c81.3,146.65,288.79,161.32,389.81,27.17,117.39-155.89,2.97-377.42-191.23-373.87Z"/>
        <path class="cls-1" d="M311.25,199.47h77.35c3.75,0,9.93,5.63,10.42,9.54l-.49,95.21c-.99,2.92-7.06,7.03-9.93,7.03h-77.35v77.35c0,5.09-5.44,10.02-10.42,10.54-28.68,3.02-62.67-2.43-91.93-.02-4.31.05-9.44-6.91-9.44-10.52v-77.35h-77.35c-5.09,0-10.02-5.44-10.54-10.42-3.02-28.68,2.43-62.67.02-91.93-.05-4.31,6.91-9.44,10.52-9.44h77.35v-77.35c0-5.09,5.44-10.02,10.42-10.54,28.68-3.02,62.67,2.43,91.93.02,4.31-.05,9.44,6.91,9.44,10.52v77.35ZM289.29,133.6h-66.87v78.35c0,4.09-6.35,10.48-10.48,10.48h-78.35v65.87h78.35c4.13,0,10.48,6.39,10.48,10.48v78.35h65.87v-78.35c0-4.09,6.35-10.48,10.48-10.48h79.35v-65.87h-79.35c-2.53,0-9.48-5.86-9.48-8.48v-80.34Z"/>
      </g>
    </g>
  </g>
</svg>