<?xml version="1.0" encoding="UTF-8"?>
<svg id="Layer_2" data-name="Layer 2" xmlns="http://www.w3.org/2000/svg" viewBox="0 0 511.09 511.07">
  <defs>
    <style>
      .cls-1 {
        fill: #00a651;
      }
    </style>
  </defs>
  <g id="Layer_1-2" data-name="Layer 1">
    <g id="O1G2Wr">
      <g>
        <path class="cls-1" d="M7.07,511.07c-6.5-2.88-9.7-11.27-4.44-16.92.55-.6,4.65-3.05,4.94-3.05h46.41v-246.52c-6.42,5.05-10.69,3.8-16.49-.98-6.57-5.41-30.67-28.78-34.84-35.02-3.28-4.91-3.64-8.89,0-13.83L251.19,1.16c3.94-2.22,7.9-1.01,11.29,1.49l106.88,83.24v-41.42c0-3.59,5.96-7.09,9.46-7.51,11.98-1.43,46.95-1.43,58.93,0,4.45.53,7.64,2.71,8.98,6.98l.68,102.12c.43,1.46,2.23,2.62,3.32,3.66,16.25,15.52,41.78,28.8,57.28,44.52,1.36,1.38,1.58,3.24,3.07,4.42v5.99c-1.54,1.42-2.06,3.37-3.47,5.02-6.37,7.53-28.2,30.22-35.55,35.31-5.45,3.77-9.58,3.82-14.88-.41v81.34c0,.29-2.45,4.38-3.05,4.94-5.45,5.08-15.19,2.26-16.68-5.17l-.18-94.63-.98-3.02L255.96,86.96,73.94,229.12v261.99h27.95v-96.31c0-3.33,6.04-7.41,9.5-7.56,3.79-.16,10.46,3.79,10.46,7.56v96.31h315.38v-95.31c0-3.33,6.04-7.41,9.5-7.56,3.79-.16,10.46,3.79,10.46,7.56v95.31h46.41c2.5,0,6.23,4.88,7.49,6.99v5.99c-2.02,3.39-3.6,4.97-6.99,6.99H7.07ZM255.24,23.1L26.08,202.28c-.38,1.83,17.57,17.82,19.95,20.9L255.11,63.87c2.76-.16,5.18,1.17,7.39,2.64l199.98,156.4,2.05.57,20.15-19.81L255.24,23.1ZM427.25,56.96h-37.93v44.41l37.93,29.44V56.96Z"/>
        <path class="cls-1" d="M157.51,217.87l196.91.24c3.4,1.13,5.36,3.1,6.49,6.49v197.67c-1.13,3.4-3.1,5.36-6.49,6.49h-197.67c-3.4-1.13-5.36-3.1-6.49-6.49v-197.67c1.18-3.7,3.54-5.66,7.24-6.73ZM245.61,237.6h-75.85v75.85h75.85v-75.85ZM341.42,237.6h-75.85v75.85h75.85v-75.85ZM245.61,333.42h-75.85v75.85h75.85v-75.85ZM341.42,333.42h-75.85v75.85h75.85v-75.85Z"/>
        <path class="cls-1" d="M111.53,347.74c10.39-.35,14.49,13.72,5.25,19.02-14.43,8.28-21.87-18.46-5.25-19.02Z"/>
        <path class="cls-1" d="M444.96,353.59c14.23-2.73,16.53,18.23,3.65,19.72s-15.4-17.47-3.65-19.72Z"/>
      </g>
    </g>
  </g>
</svg>