<?xml version="1.0" encoding="UTF-8"?>
<svg id="Layer_2" data-name="Layer 2" xmlns="http://www.w3.org/2000/svg" viewBox="0 0 511.39 487.04">
  <defs>
    <style>
      .cls-1 {
        fill: #00a651;
      }
    </style>
  </defs>
  <g id="Layer_1-2" data-name="Layer 1">
    <g id="CziFLw">
      <g>
        <path class="cls-1" d="M511.05,253.42c.52,5.86.39,15.02,0,20.96,0,.13-.93,1.1-1.03,2.43-3.3,43.94-7.75,93.21-14.07,136.67-6.47,44.53-33.25,71.73-79.2,73.56-111.61-14.86-224.88-20.43-336.35-36.02-44.52-6.23-77.89-26.63-80.4-75.29,5.8-52.71,6.17-110.53,15.18-162.57,6.15-35.54,29.09-60.33,65.34-65.41,18.61-2.61,35.97,1.86,54.28,2.4l88.26-106.38c5.15-14.79,9.06-27.92,23.2-36.69,29.88-18.53,66.24,1.42,70.12,35.32l89.89,137.67c36.42,2.39,77.3,8.14,96,43.73,4.1,7.79,8.02,20.89,8.8,29.63ZM270.02,21.44c-36.31.45-27.86,59.15,9.03,46.39,24.05-8.32,18.87-46.74-9.03-46.39ZM307.46,69.78c-17.35,29.15-59.77,27.2-76.37-1.98l-69.36,85.8,216.57,22.96-70.85-106.78ZM89.67,167.89c-41.54,3.9-50.2,30.88-54.68,67.08-5.62,45.41-8.42,91.25-14.02,136.67-.4,29.79,15.69,44.76,42.52,53.39,119.56,15.1,240.03,28.11,360.11,38.86,33.67-4.11,46.84-24.91,51.4-56.38,6.97-48.08,8.95-97.36,14.53-145.59-.57-34.52-20.14-52.29-52.95-58.27-107.56-9.24-214.71-26.19-322.26-35.04-8.25-.68-16.35-1.49-24.64-.71Z"/>
        <path class="cls-1" d="M182.49,258.71c23.81-1.5,46.59,12.15,48.98,37.25,3.5,36.76-18.66,63.71-56.96,55.97-45.75-9.25-42.6-90.04,7.99-93.22ZM181.43,273.62c-26.18,4.49-28.54,67.59,8.64,63.52,15.45-1.69,22.14-16.65,23.44-30.45,1.95-20.7-9.86-36.88-32.08-33.07Z"/>
        <path class="cls-1" d="M69.91,282.36l38.79,3.86c1.46-.91,2.8-26.03,4.72-30.72,3.84-9.4,16.22-5.59,16.78,5.78.71,14.32-3.56,41.18-5.4,56.51-.64,5.3-1.58,22.08-5.68,24.52-2.5,1.49-10.35,1.73-12.34-.5-5.27-5.88,1.68-32.04,1.07-40.49l-38.93-3.99c-.64,8.07-.96,16.42-2.01,24.45-1.15,8.78-1.26,18.71-13.24,16.24-7.73-1.59-6.93-7.93-6.7-14.23.84-23.41,6.25-49.02,8.28-72.56,1.72-7.53,14.05-7.75,16.92-1.58,3.37,7.25-1.48,24.56-2.26,32.7Z"/>
        <path class="cls-1" d="M340.38,313.31c11.86,2.27,27.89,1.97,39.18,5.24,7.39,2.14,5.43,13.02-.83,13.66l-41.34-3.93-3,24.44,43.92,5.01c10.67,3.13,8.62,14.81-2.49,14.54-15.82-.38-33.41-4.88-49.46-5.51-8.37-2.63-10.19-6.64-9.91-15.02.57-17.32,3.96-47.65,7.08-64.77,2.33-12.78,7.59-11.27,19.34-10.58,14.92.87,29.88,4.5,44.89,5.02,7.31,1.66,5.53,12.75-2.03,13.89-14.49-.57-28.98-3.97-43.41-3.5-1.32.91-1.84,18.42-1.94,21.52Z"/>
        <path class="cls-1" d="M261.82,358.92c-.62-.51-2.86-4.49-3.07-5.41.55-23.4,4.76-46.71,5.78-70.16-.84-.79-19.66-.83-22.98-2.47-1.02-.51-3.76-5.87-3.95-7.1-1.24-8.03,6.14-8.88,12.45-8.38,17.06,3.95,38.2,2.25,54.83,6.05,2.41.55,8.65,3.3,9.36,5.61,4.76,15.48-23.18,6.84-30.28,8.24l-8.12,68.75c-.79,6.37-9.66,8.43-14.02,4.87Z"/>
        <path class="cls-1" d="M420.33,361.11c1.2,1.42,31.58,3.12,36.88,4.53,5.65,1.51,10.12,4.98,7.18,11.3-1.94,4.19-8.78,3.4-12.78,3.27-11.19-.37-32.84-2.87-43.8-5.1-7.78-1.58-5.94-10.78-5.55-17.39,1.25-21.24,6-43.38,7.05-64.81,2.22-11.95,15.83-11.3,17.91-.1-1.27,22.81-5.32,45.47-6.9,68.29Z"/>
      </g>
    </g>
  </g>
</svg>