<?xml version="1.0" encoding="UTF-8"?>
<svg id="Layer_2" data-name="Layer 2" xmlns="http://www.w3.org/2000/svg" viewBox="0 0 511.16 513.37">
  <defs>
    <style>
      .cls-1 {
        fill: #00a651;
      }
    </style>
  </defs>
  <g id="Layer_1-2" data-name="Layer 1">
    <g id="rkm8pZ">
      <g>
        <path class="cls-1" d="M260.65,511.98c-5.78-.62-15.33-4.13-20.65-6.8-10.65-5.34-65.53-45.1-69.68-45.1h-25.45c.72,4.01.15,15.97-5.49,15.97h-34.43v14.47c0,1.89-5.01,6.1-7.46,5.51-28.37-2.47-62.15,3.22-89.87,0-3.43-.4-5.69-1.77-7.02-4.96-.54-61.69-1.16-123.82.31-185.43,1.32-2.14,2.89-4.35,5.68-4.3h91.92c2.12-.73,6.44,4.33,6.44,5.54v14.47h35.43c3.8,0,5.53,11.96,4.49,14.97h25.45c1.48,0,17.02-17.27,21.55-20.37,16.22-11.11,49.72-10.16,69.31-8.61,14.38,1.14,27.71,9.4,35.8,21.09l36.51,64.3c27.58-.13,63.27-2.85,63.89,34.42,1.5.43,1.71-.49,2.54-.95,22.33-12.24,45.13-34.72,67.59-48.18,19.37-11.6,36.29-4.37,43.64,16.19v10.98c-1.8,4.22-3.25,8.55-6.48,11.99-26.62,23.94-51.45,54.19-78.34,77.35-10.51,9.05-21.3,14.55-34.95,17.45-41.57-3.27-89.97,4.36-130.74,0ZM89.98,316.36H15.13v164.68h74.85v-164.68ZM382.41,435.13c4.65-40.51-35.51-19.43-57.97-28.36l-40.41-70.38c-4.77-5.47-9.6-9.99-16.71-12.23-11.19-3.52-52.89-3.26-63.24,2.01-6.08,3.1-26.98,26.12-29.77,26.12h-29.44v92.82h29.44c8.18,0,68.07,49.26,83.3,50.44,42.45,3.31,85.58.58,128.27,1.45,10.11-1.27,18.99-4.6,26.94-10.98,27.34-21.95,51.07-53.7,78.39-76.31,11.18-10.66.94-27.19-13.34-20.32l-84.77,59.94c-26.54-.18-56.7,2.9-83.1.81-8.11-.64-16.09-3.44-22.43-8.51-4.42-3.53-19.79-19.12-22.36-23.55-4.4-7.6,3.96-14.82,11.43-9.44,11.02,7.94,18.29,26.49,34.39,26.49h71.36ZM129.9,336.33h-24.95v124.76h24.95v-124.76Z"/>
        <path class="cls-1" d="M422.33,145.7v44.41c0,3.36-17.42,14.12-19.93,17.96,17.63,13.37,17.65,16.56,0,29.94,17.65,13.38,17.63,16.57,0,29.94,0,2.15,18.09,12.87,19.48,17.41,1.23,4.04.97,26.33.49,31.54-.16,1.7-.08,3.36-1.17,4.82-12.11,11.94-22.69,28.52-34.77,40.09-7.97,7.63-11.72,1.57-17.52-4.52-10.99-11.54-20.57-24.73-31.42-36.44v-175.16h-23.45c-7.54,0-21.6-14.16-21.37-22.54,2.34-31.35-3.42-68.01-.09-98.73,1.33-12.27,11.63-21.32,23.46-23.45,40.64,2.28,84.55-3.03,124.8-.04,14.77,1.1,25.18,11.79,26.44,26.46,2.58,30.1-1.79,64.1-.29,94.59.18,9.05-13.7,23.71-22.2,23.71h-22.46ZM317.26,16.18c-5.59,2.02-9.02,5.13-9.71,11.25-3.22,28.45,2.4,62.74,0,91.82.29,6.52,6.17,11.24,12.42,11.53,38.19-2.78,81.24,3.53,118.86-.01,9.16-.86,12.71-5.6,13.47-14.48,1.92-22.51,1.66-62.21,0-84.91-.69-9.52-3.4-14.57-13.48-15.47l-121.57.27ZM407.36,145.7h-54.89v169.17l27.45,31.42,27.24-31.62c.63-2.13.53-21.61-.29-23.26-.95-1.92-16.37-12.48-19.49-15.45-12.18-11.58.57-15.34,8.98-22.97-18.24-11.94-18.21-18.01,0-29.94-8.54-7.71-21.1-11.4-8.98-22.97,5.87-5.6,14.04-10.21,19.97-15.95v-38.42Z"/>
        <path class="cls-1" d="M256.39,390.37c8.59-1.57,14.9,14.14,6.54,16.6-12.43,3.65-17.69-14.56-6.54-16.6Z"/>
        <path class="cls-1" d="M49.76,396.42c16.26-4.88,12.87,33.72-1.68,23.22-4.86-3.51-4.66-21.31,1.68-23.22Z"/>
        <path class="cls-1" d="M49.76,441.33c16.26-4.88,12.87,33.72-1.68,23.22-4.86-3.51-4.66-21.31,1.68-23.22Z"/>
        <path class="cls-1" d="M350.21,41.14c10.59-1.78,45.33-1.37,56.64-.23,10.58,1.07,19.33,9.81,20.48,20.44.61,5.62.66,19.37-.09,24.87-1.48,10.78-10.78,18.67-21.34,19.58-12.95,1.12-41.26,1.39-53.93-.03-8.54-.96-18.05-8.88-19.4-17.53-.82-5.24-.79-24.52,0-29.82,1.17-7.84,9.9-15.99,17.64-17.29ZM353.18,56.09c-3.66,1.1-5.3,3.56-5.72,7.25-.51,4.44-.61,21.45,1.54,24.45,1.83,2.55,4.03,2.8,6.92,3.07,11.96,1.09,34.97,1,46.99,0,6-.51,8.71-2.1,9.47-8.5.64-5.37,1.17-22.46-3.71-25.29-7.2-4.17-44.96.53-55.49-.97Z"/>
      </g>
    </g>
  </g>
</svg>