<?xml version="1.0" encoding="UTF-8"?>
<svg id="Layer_2" data-name="Layer 2" xmlns="http://www.w3.org/2000/svg" viewBox="0 0 487.16 423.49">
  <defs>
    <style>
      .cls-1 {
        fill: #00a651;
      }
    </style>
  </defs>
  <g id="Layer_1-2" data-name="Layer 1">
    <g id="fX6pgU">
      <path class="cls-1" d="M63.34,184.02c-5.99,1.19-7.9,12.63-17.42,6.44-11.06-7.19,7.39-23.02,16.42-22.41,28.88,2.31,62.53-3.07,90.83,0,6.04.66,10.59,3.81,15.45,6.99,5.81-20.08,18.4-41.57,36.21-53.12,5.82-3.77,11.49-5.46,17.67-8.26-54.96-46.85-3.15-135.39,64.88-108.77,21.47,8.4,43.92,36.83,39.88,60.81-1.31,7.74-7.9,2.9-6.93,12.03,1.43,13.48,15.86,18.74,5.4,33.35-1.8,2.52-5.5,4.78-6.83,7.14-1.21,2.16-1.79,5.66-3.4,8.58-4.38,7.95-11.78,13.28-21.12,13.31-.72.61,6.69,10.74,7.57,11.89,5.74,7.45,11.99,14.74,21.98,15.94,12.44,1.5,23.14-4.32,35.64,2.28,4.25,2.24,6.48,6.41,10.64,7.8,3.16-10.73,12.02-19.1,22.29-23.13,5.94-2.33,19.6-6.15,22.19,2.12v69.97c-3.87,8.29-14.03,4.32-20.81,2.73-1.25-.29-1.9-1.96-1.69.69l28.07,65.26c51.02-1.54,83.95,52.63,57.56,97.25-30.58,51.69-111.78,34.2-117.57-25.26l-121.2-.02c-2.98,23.77-20,44.56-42.7,52.2-37.85,12.73-79.78-12.19-83.62-52.19-7.55-1.44-29.73,3.9-32.49-4.93-3.04-9.72,2.87-37.53,6.05-47.95,3.84-12.6,9.4-25.25,18.46-34.94h-44.41c-9.09,0-21.56-14.46-20.5-23.91-1.17-1.13-27.63.53-32.41-.02-11.71-1.36-7.34-15.99-1.97-15.99h34.43v-15.97h-18.46c-5.17,0-10.41-14.82,2.95-16.02,9.83-.88,29.2-.9,39.02,0,5.64.52,9.19,3.34,8.41,9.44-1,7.89-10.04,6.73-15.95,6.58v15.97h18.46c6.96,0,6.96,15.97,0,15.97h-18.46c1.49,5.33,3.96,7.36,9.48,7.98,26.34,2.96,57.95-2.23,84.86.02,5.57-.66,8.81-3.89,9.48-9.48,1.48-12.36,1.47-48.56,0-60.93-.42-3.5-3.92-9.46-7.51-9.46h-16.47v26.45c0,3.29-5.58,5.28-8.44,5.54-8.65.78-32.82,1.16-40.91-.11-2.24-.35-6.55-3.35-6.55-5.43v-26.45c-4.89.66-11.9-.91-16.47,0ZM310.35,56.27c-5.96-38.77-55.16-53.51-81.86-24.48s-10.37,73.35,26.97,79.37v-27.45c0-10.46,17.02-27.45,27.45-27.45h27.45ZM303.37,72.23c-10.99.33-22.43-2.67-29.4,8.04-5.53,8.49-1.19,29.42-2.44,39.78,10.23,2.53,26.55,10.26,31.17-4.06.88-2.72.32-5.62,1.77-8.21s7.43-4.66,7.79-6.2-12.45-23.55-8.89-29.35ZM175.62,223.94h66.87c2.95-11.1,7.8-22.11,15.93-30.44-4.5-4.79-18.16-21.18-7.56-25.51s14.47,9.67,20.6,16.5c9.45,10.53,23.86,19.41,37.9,21.49-.08-8.36,1.86-16.7,5.99-23.94-26.78-6.52-32.21-42.38-57.35-50.95-13.39-4.56-27.85-3.92-40.48,2.51-28.23,14.39-41.08,60.99-41.9,90.34ZM399.18,170.05c-21.04,6.59-21.03,37.33,0,43.91v-43.91ZM355.93,187.36c-6.92-6.96-19.57-5.11-25.63,2.14-2.54,3.04-6.83,14.26-4.53,17.55,2.51,3.61,31.16-2.99,34.51-6.55,2.08-2.22-2.35-11.13-4.34-13.14ZM119.73,184.02h-23.95v15.97h23.95v-15.97ZM326.33,345.71c8.13-5.46,9.85-15.1,8.87-24.35l-22.3-97.46c-15.66-2.99-30.57-8.73-42.97-18.82-2.84,2.04-12.08,17.57-10.45,19.82,18.76,3.29,36.63,18.03,41.84,36.53,4.97,17.64.57,40.24,2.01,58.67,11.58,4,22.12,12.57,23.01,25.61ZM343.29,351.69h27.45l33.91-46.95.61-2.43-37.51-87.33c-11.48,6.4-25.33,9.2-38.43,8.97l22.95,99.33c-.01,10.2-3.01,20.23-8.98,28.42ZM287.4,319.76v-45.41c0-17.23-19.73-34.43-36.43-34.43h-75.35v19.46c0,.79-1.85,3.29-2,4.49h49.4c12.83,0,32.44,19.65,32.44,32.44v23.45h31.94ZM247.48,351.69c-18.92-19.34,7.56-68.11-29.45-71.85-19.36-1.96-56.1-1.44-75.89-.06-20.14,1.4-29.64,12.43-36.87,30-5.47,13.29-8.22,27.63-9.5,41.9h151.7ZM376.22,367.66c2.05,14.47,12.03,27.87,24.93,34.45,39.87,20.32,83.04-19.8,66.07-61.08-7.4-18-29.01-32.29-48.65-28.34l-14.39,21.03c28.05-19.72,63.51,11.05,47.08,41.6-11.96,22.25-43.62,21.41-56.1-.16-.92-1.59-2.57-7.51-2.97-7.51h-15.97ZM298.88,335.73c-11.86-2-28.97,1.48-41.42,0,2.4,9.66,12.05,15.19,21.42,16,4,.35,31.46.32,32.44-1.09-.03-6.73-5.81-13.8-12.44-14.92ZM410.16,367.66c-.11,2.63,2.92,4.44,4.94,5.54,17.34,9.43,32.82-13.18,18.51-25.49-7.01-6.03-19.57-5.08-23.44,3.98h15.47c6.96,0,6.96,15.97,0,15.97h-15.47ZM144.68,367.66h-15.97c9.66,52.73,84.15,52.74,93.82,0h-15.97c-9.8,31.55-52.08,31.56-61.88,0ZM188.59,367.66h-25.95c3.8,10.19,22.15,10.19,25.95,0Z"/>
    </g>
  </g>
</svg>