<?xml version="1.0" encoding="UTF-8"?>
<svg id="Layer_2" data-name="Layer 2" xmlns="http://www.w3.org/2000/svg" viewBox="0 0 127.09 127.04">
  <defs>
    <style>
      .cls-1 {
        fill: #00a651;
      }
    </style>
  </defs>
  <g id="Layer_1-2" data-name="Layer 1">
    <g id="O5r3UG">
      <g>
        <path class="cls-1" d="M127.09,27.82v4.96c-1.69,1.29-9.46,8.2-9.59,9.4-.12,1.11,3.3,10.55,3.62,13.93,3.6,38.67-25.35,68.12-64.02,65.01-3.67-.3-13.8-3.79-14.87-3.67-1.2.13-8.12,7.9-9.4,9.59h-4.96C24.67,121.29.67,102.02.04,97.71c-.79-5.39,9.33-10.12,9.62-12.82.12-1.11-3.3-10.55-3.62-13.93-1.88-20.21,4.7-39,20.35-52.05,2.15-1.79,16.41-12.69,16.38-5.47-.01,2.4-7.73,5.39-9.89,7C14.47,34.16,6.08,58.19,13.48,80.42c1.23-.03,7.55-6.01,7.96-6.98.37-.89-.8-11.46-.56-14.4,1.6-19.5,18.74-36.6,38.2-38.2,3.74-.31,11.83,1.17,13.81.8.62-.12,7.27-6.57,7.55-7.22.84-2-1.34-1.36-2.32-1.61-2.26-.58-5.1-1.27-7.37-1.58-5.16-.7-12.33,1.93-11.14-5.23,4.07.17,8.22-.33,12.28.12,3.1.34,11.96,3.63,13.04,3.51,3.03-.33,7.51-11.25,13.66-9.41,4.87,1.46,22.04,24.19,28.49,27.61ZM96.82,5.01L5.06,96.78l25.28,25.28L122.11,30.3l-25.28-25.28ZM67.55,25.84c-24.11-1.88-43.54,17.56-41.66,41.66l41.66-41.66ZM114.18,46.68c-.93-.97-8.1,6.1-8.46,6.97s.8,11.46.56,14.4c-1.6,19.5-18.74,36.6-38.2,38.2-2.94.24-13.51-.93-14.4-.56s-7.94,7.53-6.97,8.46c42.6,11.85,79.24-24.92,67.46-67.46ZM101.28,59.58l-41.66,41.66c24.11,1.88,43.54-17.56,41.66-41.66Z"/>
        <path class="cls-1" d="M52.64,11.91c-.93.74-5.5-.14-4.93-2.44,1.29-5.2,8.16-.13,4.93,2.44Z"/>
        <path class="cls-1" d="M34.81,93.32c.81,2.4,5.97,5,5.99,7.43.1,8.96-16.66-8.4-16.95-10.95-.76-6.76,10.1-.81,13.93-1.46-.74-1.73-9.71-8.43-4.37-9.87,3.09-.83,15.06,11.09,15.32,13.39.76,6.69-10.18,1.32-13.93,1.46Z"/>
        <path class="cls-1" d="M50.44,63.76c14.78-2.43,17.38,18.66,5.5,21.4-17.59,4.06-18.69-19.23-5.5-21.4ZM51.4,68.66c-5.56.84-6.51,9.91-1,11.54,10.48,3.11,9.65-12.86,1-11.54Z"/>
        <path class="cls-1" d="M80.21,35.01c3.13,3.13-3.2,4.92-2.73,7.19.85,4.1,5.07-2.1,7.42-1.47,4.97,1.32-3.36,6.66-.48,8.44,2.49,1.54,3.63-2.91,5.45-3.19,1.15-.18,2.98,1.33,3.07,2.63s-6.21,7.66-7.17,7.85c-2.44.47-14.89-12.07-15.09-14.41-.11-1.28,6.76-9.81,9.54-7.03Z"/>
        <path class="cls-1" d="M97.31,29.81c1.23,1.23-1.28,5.63-2.95,6.44,3.41,5.64,4.5-2.53,8.4-1.49,4.73,1.26-3.43,9.72-5.99,9.97s-14.19-11.43-14.39-13.5c-.33-3.38,8.71-11.59,9.97-6.88,1.04,3.9-7.12,4.99-1.49,8.4.81-1.68,5.21-4.19,6.44-2.95Z"/>
        <path class="cls-1" d="M66.23,45.83c1.34-.36,2.99.18,3.3,1.35.62,2.34-5.57,6.58-1.47,7.42.98.2,6.37-6,7.36-.36.3,1.74-2.63,2.78-2.85,3.97-.2,1.08,7.61,7.81,2.39,9.29-2,.57-14.84-12.03-15.25-13.59-.51-1.95,4.96-7.66,6.51-8.08Z"/>
      </g>
    </g>
  </g>
</svg>