<?xml version="1.0" encoding="UTF-8"?>
<svg id="Layer_2" xmlns="http://www.w3.org/2000/svg" version="1.1" viewBox="0 0 199.3 199.3">
  <!-- Generator: Adobe Illustrator 29.0.1, SVG Export Plug-In . SVG Version: 2.1.0 Build 192)  -->
  <defs>
    <style>
      .st0 {
        fill: #00a651;
      }
    </style>
  </defs>
  <g id="IZa01b">
    <path class="st0" d="M106.5,65.5h19.2c.2,0,2.7-2.8,3.1-3.3h-6.8c-1.4,0-2.2-2.3-2.3-3.5-.3-2.9-.4-10.9,0-13.6,0-.9,1.4-2.7,2.2-2.7h6.8c-2.1-3.3-7.2-4.7-3.9-9.1,1.3-1.7,6.9-7.3,8.7-8.7,4.6-3.6,5.8,1.4,9.3,3.7v-6.8c0-1.4,2.3-2.2,3.5-2.3,2.9-.3,10.9-.4,13.6,0,.9.1,2.7,1.4,2.7,2.2v6.8c3.5-2.3,4.7-7.3,9.3-3.7,1.8,1.4,7.4,6.9,8.7,8.7,3.3,4.4-1.8,5.8-3.9,9.1h6.8c1.4,0,2.2,2.3,2.3,3.5.3,2.9.4,10.9,0,13.6-.1.9-1.4,2.7-2.2,2.7h-6.8c.6.7,2.2,2.8,2.9,3.1,1.9.9,3.9-.8,5.7,1.7l13.5,27c.9,1.3-.7,4.6-2.1,4.6h-10.9v35.7c1.3.9,3,.9,4.6,1.6,6.6,2.8,9.3,11.6,6.2,17.9-1.8,3.7-5.6,5.6-8.9,7.6-15.8,9.7-34.4,20.8-50.8,29.3-3.6,1.8-6.7,3.3-10.8,3.7-17,1.3-35.7-1-52.9,0-4.7-.5-8.9-2.3-13-4.6-.2,2.8,1.1,6.7-2.4,7.8-8.7-.4-18.6.9-27.2.1-4.2-.4-3.5-3.3-3.5-6.6H3c-1.4,0-2.2-2.3-2.3-3.5-1.3-14.7,1-31.4,0-46.3-.3-1,1.5-3.1,2.3-3.1h24.2c0-2.7-.6-5.9,2.7-6.6,8.6.7,18.8-1,27.2,0,1.1.1,3.1,1.2,3.1,2.3v6.8l6.6-1.6v-40.5h-10.9c-1.4,0-3-3.2-2.1-4.6,5-7.9,8.3-19.2,13.3-26.7,1.7-2.5,3.5-1.7,6.3-1.8v-8.5c0-3.3-4.9-7-6.8-9.3-11-13.7-7.5-34.1,7.1-43.6,2.9-1.9,8.2-5,9.5,0v23c.2.3,5.7,4.1,6.2,4.2,1.2.3,5.7-3.3,7-4.2.8-7.2-.8-15.7,0-22.7s9.5-.8,12.2,1.5c12.6,10.4,14.8,29.1,4.3,41.9-1.9,2.4-6.6,5.7-6.6,9.1v8.5h0l.2.2ZM103.2,10.2v20c0,.3-.9,1.3-1.3,1.6-1,1-8.9,6.2-10.2,6.8-1.6.7-2,.7-3.6,0-1.3-.5-9.1-5.8-10.2-6.8-.3-.3-1.3-1.3-1.3-1.6V10.2c-9.9,6.9-12.8,20-6.8,30.6,2.6,4.6,10.1,9.7,10.1,15.5v9.3h6.6v-10.9c0-2.9,6.6-2.9,6.6,0v10.9h6.6v-9.3c0-5.5,7.5-10.8,10.1-15.5,6-10.6,3-23.6-6.8-30.6h.2ZM156,25.9h-6.6v8.9c0,1.3-4.6,3.3-5.9,3-1.7-.3-6.6-6.5-7.1-6.5l-4.6,4.5c-.4.8,6,5.5,6.3,7.3.2,1.3-1.7,5.9-3,5.9h-8.9v6.6h8.9c1.2,0,3.2,4.4,3.1,5.6-.1,1.8-2.5,2.9-3.3,4.4h15.3l-3.9-1.6c-13.3-7.6-5.6-27.8,9.6-24.4,11.4,2.5,13.7,18.2,3.7,24.1l-4.8,2h15.7c-.8-1.5-3.2-2.6-3.3-4.4,0-1.2,1.9-5.6,3.1-5.6h8.9v-6.6h-8.9c-1.3,0-3.3-4.6-3-5.9.3-1.8,6.7-6.5,6.3-7.3l-4.6-4.5c-.5,0-5.4,6.2-7.1,6.5-1.3.2-5.9-1.7-5.9-3v-8.9h0ZM151.4,45.8c-8,1.3-6.6,14.5,2.7,13,8-1.3,6.6-14.5-2.7-13ZM120.9,72.2h-48.5l-10.1,19.8h48.5l10.1-19.8ZM190.3,92l-10.1-19.8h-48.5l10.1,19.8h48.5ZM123,145.2v-61.9l-7.1,13.8c-.2.5-1.5,1.5-1.8,1.5h-40.7v38.8c4.2-1.5,8.5-1.9,12.9-1.6l36.6,9.4h.1ZM179.1,98.6h-40.7c-.3,0-1.6-1.1-1.8-1.5l-7.1-13.8v64c4.3,1.2,9.6,1.6,13.2,4.4.8.6,2.7,3.1,3.5,3l32.9-19.1v-36.9h0ZM53.6,138.2h-19.8v52.8h19.8v-52.8ZM60.3,147.3v34.8c4.1,2.5,8.8,5.3,13.8,5.7,16.5,1.2,34.5-1,51.2,0,3.7-.3,6-1.6,9.1-3.3,18.6-9.8,36.7-21.8,55-32.1,4.7-5.7-.8-13.4-7.7-10.6l-33,19c-1,1-.4,2.5-.7,3.9-2.5,11.1-11.4,11.5-20.6,9.3-11.8-2.8-23.3-6.6-35.1-9.5-4.1-1.4-2.9-6.9,1.5-6.5,14,3.5,27.9,8.3,42.2,10.7,6.9-.7,7.6-10.6,1.1-12.7l-51.1-13.7c-8.8-.5-17.2,3.4-25.7,5h0ZM27.2,144.8H7.4v39.6h19.8v-39.6h0Z"/>
  </g>
</svg>