<?xml version="1.0" encoding="UTF-8"?>
<svg id="Layer_2" data-name="Layer 2" xmlns="http://www.w3.org/2000/svg" viewBox="0 0 511.03 511.3">
  <defs>
    <style>
      .cls-1 {
        fill: #00a651;
      }
    </style>
  </defs>
  <g id="Layer_1-2" data-name="Layer 1">
    <g id="lf3tLl">
      <g>
        <path class="cls-1" d="M7.01,511.3c-4.07-2.51-6.4-4.31-7.01-9.46l.09-202.56c.48-3.87,3.87-7.51,7.63-8.34,8.9-1.97,23.06,1.01,32.56-.17l1.19-1.96,28.85-230.69c1.39-5,5.05-7.34,10.05-7.91,13.42-1.53,45.25-1.31,58.92-.04,11.38,1.06,10.81,8.37,12.3,17.65,11.61,72.51,16.47,147.61,27.1,220.42-.06.83.92,2.5,1.49,2.5h50.4v-113.28c0-1.86,5.82-7.22,8.46-6.51l222.64-.02c3.53-1.3,9.43,5.04,9.43,7.53v112.28h32.44c2.5,0,6.23,4.88,7.49,6.99v206.6c-2.02,3.39-3.6,4.97-6.99,6.99H7.01ZM134.76,101.1l-3.93-30.51-41.99-.44-3.99,30.94h49.9ZM80.87,140.02h58.88l-2.05-17.91-54.7.09-2.14,17.83ZM61.9,290.73h96.81l-15.98-129.74-64.76.1-16.07,129.64ZM451.14,190.92h-200.61v99.81h19.96v-72.36c0-.61,3.06-5.27,4.01-5.97,1.88-1.38,3.25-1.37,5.42-1.56,16.78-1.51,35.85,1.17,52.89.1,2.32-.28,7.54,4.84,7.54,6.43v73.36h19.96v-71.36c0-2.6,5.39-8.38,8.54-8.43,16.69,1.07,35.46-1.61,51.89-.11,4.51.41,10.43,3.57,10.43,8.54v71.36h19.96v-99.81ZM320.4,230.84h-29.94v59.88h29.94v-59.88ZM411.22,230.84h-29.94v59.88h29.94v-59.88ZM491.06,310.69H19.98v140.73h19.96v-72.36c0-4.35,6.71-7.87,10.57-8.4,9.84-1.34,38.78-1.23,48.82-.09,6.15.7,11.48,4.91,11.48,11.48v69.36h18.96v-71.36c0-1.19,2.7-5.96,4.02-6.96,2.17-1.66,5.71-2.32,8.42-2.56,10.89-.96,37.4-1.29,47.86.13,3.78.51,10.57,4.36,10.57,8.4v72.36h19.96v-73.36c0-5.09,9.48-7.24,13.43-7.53,11.58-.84,34.64-1.21,45.84.16,3.33.41,10.59,3.74,10.59,7.37v73.36h19.96v-72.36c0-4.03,6.79-7.88,10.57-8.4,7.93-1.07,45.27-1.17,52.13.6,4.31,1.11,8.17,5.33,8.17,9.8v70.36h18.96v-69.36c0-6.57,5.32-10.78,11.48-11.48,10.04-1.14,38.98-1.25,48.82.09,3.86.53,10.57,4.04,10.57,8.4v72.36h19.96v-140.73ZM89.85,391.53h-29.94v59.88h29.94v-59.88ZM180.67,391.53h-29.94v59.88h29.94v-59.88ZM270.5,391.53h-29.94v59.88h29.94v-59.88ZM360.32,391.53h-29.94v59.88h29.94v-59.88ZM451.14,391.53h-29.94v59.88h29.94v-59.88ZM491.06,471.37H19.98v19.96h471.08v-19.96Z"/>
        <path class="cls-1" d="M117.5.51c5.66-1.29,14.95.88,20.25,3.29,10.65,4.83,16.4,16.59,29.44,16.55,14.17-.04,23.13-18.25,40.93-20.04,28.38-2.84,30.03,15.16,48.13,19.72,5.56,1.4,12.26-.63,14.01,7.95,3.06,15.06-14.5,13.36-24,10.02-12.42-4.36-19.69-18.07-33.15-17.82-11.77.22-18.87,12.37-29.17,16.82-12.09,5.23-26.03,4.49-37.5-1.97-7.95-4.48-12.98-12.29-22.39-14.54-4.54-1.09-6.53,1.01-10.79-3.18-5.71-5.62-3.11-15.12,4.25-16.8Z"/>
        <path class="cls-1" d="M208.34,50.43c5.2-1.07,14.34,1.07,19.23,3.26,10.27,4.59,16.35,16.11,28.42,16.52,16.62.56,24.01-18.82,44.9-20.05,25.84-1.51,28.43,15.53,45.19,19.76,4.66,1.18,12.37-.27,14.02,6.93,2.9,12.68-7.92,14.62-18.01,13.02-18.29-2.89-27.36-26.93-47.71-17.29-4.99,2.36-9.67,8.32-14.58,11.37-13.08,8.12-30.08,8.8-43.54.98-5.9-3.43-11.22-10.06-17.28-12.66-5.29-2.27-11.68-1.14-15.4-4.56-5.93-5.44-3.37-15.6,4.76-17.27Z"/>
      </g>
    </g>
  </g>
</svg>