<?xml version="1.0" encoding="UTF-8"?>
<svg id="Layer_2" data-name="Layer 2" xmlns="http://www.w3.org/2000/svg" viewBox="0 0 418.32 511.42">
  <defs>
    <style>
      .cls-1 {
        fill: none;
        stroke: #00a651;
        stroke-miterlimit: 10;
      }

      .cls-2 {
        fill: #00a651;
      }

      .cls-3 {
        fill: #fff200;
      }
    </style>
  </defs>
  <g id="Layer_1-2" data-name="Layer 1">
    <g id="Rl96Kp">
      <g>
        <path class="cls-2" d="M418.22,497.97c-2.3-28.66-7.56-63.06-12.1-91.7-3.66-23.03-10.77-53.54-26.3-71.51-15.97-18.5-60.02-31.68-83.58-39.18-7.35-2.34-21.37-4.76-27.3-7.63-.96-.46-1.84-.44-2.27-1.72-.6-1.79-.4-12.46.38-14.32.54-1.28,10.65-9.36,12.97-11.98,15.74-17.81,21.62-41.37,20.45-64.89,10.35,2.32,22.37-1.55,26.43-11.99,1.34-3.45,2.24-8.36,2.58-13.66.64-9.93-.69-21.25-4.8-27-1.37-1.92-4-2.65-4.32-4.76-.39-2.63,1.82-10.52,2.05-13.96C328.3,34.52,284.06-4.3,196.12.38c-73.36,3.89-103.6,47.68-100.3,118.35.26,5.42,2.7,12.78,2.1,17.97-.41,3.56-4.56,6.1-6.22,9.76-1.75,3.86-2.36,14.37-2.13,22.93.12,4.42.47,8.31.99,10.5,3.05,12.68,16.18,18.52,28.26,15.15v21.46c0,15.08,14.61,38.23,25.06,48.8,1.52,1.54,7.24,4.87,7.71,6.26.42,1.21.6,15.59.07,16.21-28.9,8.13-61.1,15.98-88.09,29.18-34.06,16.64-44.01,45.78-50.25,81.49C7.99,428.92,2.53,467.24.06,497.96c-.14,1.82,0,3.67-.01,5.48l13.98,1,13.26-104.01c5.56-28.75,14.22-62.05,45.62-71.65v60.88c-12.51,3.82-21.45,16.88-22.85,29.55-2.97,26.82,2.01,58.41-.12,85.75-.07,3.06,1.75,4.77,4.01,6.46h310.39c3.91-2.51,4.65-4.95,5.03-9.44,1.72-20.3,1.23-53.32,0-73.93-1-16.92-6.51-32.86-23.99-38.39v-60.88c31.1,9.49,40.63,44.08,45.62,72.65,5.95,34.05,7.45,69.6,14.23,103.57l12.94-1.61c.17-1.79.19-3.63.05-5.42ZM314.44,158.11c-.46,3.21,0,7.38.23,11.28.15,2.65.19,5.18-.23,7.19-1.42,6.7-14.57,6.56-14.09-2,.11-1.88,1.91-3.55,3.94-5.19,1.95-1.57,4.1-3.1,5.18-4.77l4.97-6.51ZM117.79,152.65c-1.57-2.7-4.44-7.4-1.26-9.31,2.74-1.64,8.74-3.68,12.02-4.93,56.67-21.64,119.27-16.45,174.85,5.79-3.5,22.82-22.09,18.23-39.05,14.6-17.91-3.83-36.5-10.75-55.21-10.75-20.31,0-39.68,7.91-59.2,11.75-12.49,2.45-24.6,5.82-32.15-7.15ZM220.16,14.35c27,1.42,56.22,9.26,72.73,32.07,17.77,24.55,16.72,55.81,14.55,84.75-58.37-24.38-121.97-28.36-181.88-6.74-2.21.8-12.52,5.75-13.24,5.69-1.35-.11-2.33-11.95-2.47-14.43-4.42-75.75,38.76-105.08,110.31-101.34ZM106.52,180.14c-.48-.36-2.67-4.29-2.67-4.56v-18.46l6.48,8.99c.53,1.15,2.01,2.24,3.6,3.28,2.37,1.54,4.98,2.94,4.99,4.17.05,6.59-7.23,10.32-12.4,6.58ZM132.8,176.09c12.09-.41,23.85-3.51,35.58-6.7,12.78-3.46,25.53-7.03,38.71-7.33,14.92-.34,29.1,3.55,43.3,7.33,11.87,3.16,23.76,6.23,36.11,6.69.69,29.72,1.49,58.59-22.44,79.87-27.52,24.48-85.62,23.97-111.96-2.37-21.93-21.94-19.95-48.6-19.3-77.49ZM165.73,279.88c18.13,7.71,39.85,8.31,59.43,7.03,9.33-.61,18.89-3.32,27.39-7.03l-.53,10.94-42.88,54.92-40.82-51.99c-3.88-3.87-2.39-8.9-2.59-13.87ZM124.81,310.32c.39-.7,1.06-.93,1.71-1.28,1.71-.9,25.82-7.82,27.99-8.05.81-.09,1.53-.32,2.22.3l52.41,66.4,52.41-66.4c2.21-1.4,25.63,7.18,30.21,7.75l1.72,1.28v79.34H124.81v-79.34ZM353.68,416.79c.41,1.5,1.68,8.21,1.68,9.3v71.36H63.93v-77.35c0-5.03,5.95-13,10.28-15.66,4.29-2.63,11.31-2.51,12.46-7.51l.37-73.48c1.03-3.02,20.12-7,23.8-9.64v83.34c0,5.43,7.18,7.16,11.44,7.52,55.87,4.69,118.19-3.62,174.73,0,2.83.32,10.44-2.43,10.44-5.53v-84.33c.88-.93,23.34,7.21,23.82,8.62l.35,72.51c1.42,5.76,7.25,5.38,11.44,7.52,5.53,2.81,8.99,7.32,10.62,13.33Z"/>
        <path class="cls-2" d="M118.82,429.58h-38.92c.44-2.76-1.04-11.16.93-12.54,2.76-1.93,30.75.44,36.35-.3,3.1,1.01,1.09,10.01,1.64,12.84Z"/>
        <path class="cls-2" d="M338.39,416.61v12.97h-37.93c.25-2.25-.95-12.97,1.5-12.97h36.43Z"/>
      </g>
    </g>
    <path class="cls-1" d="M125.56,124.43c-2.21.8-12.52,5.75-13.24,5.69-1.35-.11-2.33-11.95-2.47-14.43-4.42-75.75,38.76-105.08,110.31-101.34,27,1.42,56.22,9.26,72.73,32.07,17.77,24.55,16.72,55.81,14.55,84.75-58.37-24.38-121.97-28.36-181.88-6.74Z"/>
    <path class="cls-3" d="M307.44,131.17c-58.37-24.38-121.97-28.36-181.88-6.74-2.21.8-12.52,5.75-13.24,5.69-1.35-.11-2.33-11.95-2.47-14.43-4.42-75.75,38.76-105.08,110.31-101.34,27,1.42,56.22,9.26,72.73,32.07,17.77,24.55,16.72,55.81,14.55,84.75Z"/>
  </g>
</svg>