<?xml version="1.0" encoding="UTF-8"?>
<svg id="Layer_2" data-name="Layer 2" xmlns="http://www.w3.org/2000/svg" viewBox="0 0 445.32 348">
  <defs>
    <style>
      .cls-1 {
        fill: #00a651;
      }
    </style>
  </defs>
  <g id="Layer_1-2" data-name="Layer 1">
    <g id="tjpsgr">
      <g>
        <path class="cls-1" d="M400.31,109.01h17.96c1.18-2.41,1.66-12.71-.14-13.83-2.73-1.7-15.61,2.12-19.06-6.38-6.41-15.8,12.86-17.81,23.75-14.77,16.55,4.62,19.37,21.48,17.33,36.39-2.12,15.48-17.96,21.63-31.85,21.04,13.51,14.65,27.77,28.76,33.19,48.65,4.36,16,4.63,67.66,2.63,84.99-1.31,11.32-8.79,19.93-17.69,26.22.59,21.71,2.09,47.99-24.06,54.79-11.3,2.94-49.32,2.69-59.62-2.37-6.29-3.09-17.29-15.62-17.29-22.64v-25.45H119.86v25.45c0,7.01-11,19.54-17.29,22.64-10.31,5.07-48.32,5.31-59.62,2.37-26.14-6.8-24.64-33.08-24.06-54.79-8.9-6.29-16.39-14.9-17.69-26.22-2-17.33-1.73-68.99,2.63-84.99,5.46-20.02,19.56-33.87,33.19-48.65-13.89.59-29.72-5.56-31.85-21.04s.77-31.77,17.33-36.39c10.89-3.04,30.16-1.03,23.75,14.77-3.45,8.5-16.33,4.68-19.06,6.38-1.8,1.12-1.32,11.42-.14,13.83h17.96c3.77-14.51,7.89-29.38,12.71-43.68C70.09,28.58,89.67,5.88,130.3,1.18c60.23,2.93,123.91-3.76,183.73,0,62.02,3.88,70.65,55.98,85.82,103.84.41,1.29.55,2.65.46,4ZM423.27,230.77v-32.44c0-29.2-25.52-38.86-35.12-58.7-22.44-46.36-11.88-113.38-81.11-117.5-58.3-3.47-121.02,1.81-179.59,1.14-54.38,8.76-52.37,77.13-70.26,117.38-9.87,12.95-34.14,34.43-34.14,51.69v38.42h50.4c3.84,0,9.46-5.85,10.25-9.71.74-3.61.71-14.92.25-18.76-2.02-16.84-28.9-10.06-40.47-11.43s-12.42-19.39,1-21c8.19-.99,30.71-.69,38.23,1.74,28.82,9.32,31.26,57.49,8.7,74.13-2.04,1.5-10.93,5.99-12.97,5.99H23.05c.3,4.73-.84,10.08.92,14.55.72,1.83,6,7.41,7.56,7.41h113.28v-36.43c0-5.63,6.93-11,12.44-10.52l132.8.02c3.64-.48,10.46,5.52,10.46,8.51v38.42h113.28c.29,0,4.48-2.46,5.02-2.97,3.5-3.3,6.76-18.99,2.97-18.99h-54.89c-11.25,0-25.27-17.57-26.45-28.44-2.26-20.82.14-44.47,22.99-51.88,7.01-2.28,30.62-2.47,38.42-1.55,12.36,1.47,12.36,19.54,0,21-10.79,1.28-31.98-4.15-38.3,6.62-3.46,5.9-3.35,22.2.84,27.8,1.01,1.35,6.32,5.48,7.49,5.48h51.4ZM278.55,248.74h-111.78v24.95h111.78v-24.95ZM97.9,295.65h-56.89v22.46c0,4.04,7.82,7.19,11.44,7.52,8.18.77,27.97.94,35.88-.13,2.77-.37,9.57-3.64,9.57-6.4v-23.45ZM404.3,295.65h-56.89v23.45c0,2.58,7,6.04,9.57,6.4,7.71,1.09,27.85.87,35.88.12,3.61-.34,11.44-3.48,11.44-7.52v-22.46Z"/>
        <path class="cls-1" d="M92.65,109.25l258.26-.24c15.81,1.81,12.85,22.99-2.96,21.99H97.37c-14.78.61-18.96-17.41-4.72-21.76Z"/>
        <path class="cls-1" d="M131.58,170.14l182.84.3c8.35,4.64,8.1,15.02-.21,19.66-59.76,1.77-119.98.23-179.91.78-11.2-1.97-13.1-15.96-2.72-20.73Z"/>
      </g>
    </g>
  </g>
</svg>