<?xml version="1.0" encoding="UTF-8"?>
<svg id="Layer_2" data-name="Layer 2" xmlns="http://www.w3.org/2000/svg" viewBox="0 0 127.37 124.68">
  <defs>
    <style>
      .cls-1 {
        fill: #00a651;
      }
    </style>
  </defs>
  <g id="Layer_1-2" data-name="Layer 1">
    <g id="X4X36c">
      <g>
        <path class="cls-1" d="M127.17,82.29c-4.04,31.76-39.27,50.2-68.45,39.18-3.9-1.47-12.61-8.42-13.41-8.42h-21.83c-.26,0-.99-1.14-1.47-1.49.64-.46,2.15-2.48,2.46-2.48h15.38c-4.2-6.88-9.96-13.43-10.91-21.83H7.61c-1.71,0-1.71-3.97,0-3.97h20.34c-1.97-7.17-1.08-14.83.99-21.82-1.36-.97-14.83,2.02-13.89-2.48.66-3.14,12.12-.3,14.89-1.99.71-.43,6.44-11.8,8.5-14.32,1.49-1.82,3.21-3.45,4.9-5.07,1.24-1.19,3.19-.3,2.45-2.95-2.23,2.11-12.72,1.38-9.91-2.96,1.14-1.76,14.26-.58,17.3-1.07,2.37-.38,7.83-3.96,9-3.87,1.05.08,2.04,2.98,1.44,3.89-.2.3-5.4,1.88-6.78,2.65-50.8,28.53-19.33,99.79,32.4,85.98,37.12-9.91,45.99-58.29,15.6-81.64-3.71-2.85-16.49-8.93-20.84-8.93h-15.38c-1.1-7.47,10.76-1.74,13.41-4.94.22-.27,2.39-6.15,2.36-6.5-.15-1.35-5.67-1.14-5.74-5.91-.03-2.25,3.11-10.62,5.56-11.29s16.29,3.65,13.18,6.81c-9.24-.37-11.96-7.8-14.88,4.95,8.04,1.13,19.02,7.86,26.5,8.78,1.91.24,3.52-6.1,3.21-7.15-1.06-3.52-12.46-1.28-9.85-7.56,10.34.68,18.42,4.98,11.71,16.17-2.85,4.75-8.36,1.33-8.73,1.68-.31.29-2.14,7.87-2.07,8.29.06.36,5,3.19,6.04,4.11,9.63,8.46,14.53,17.97,17.85,30.27-.45,5.04.62,10.98,0,15.88ZM100.37,29.7c-.96-1.96,2.13-6.21,1.53-6.97-.54-.68-12.91-4.97-13.47-4.53-1.4,1.09-1.64,5.76-2.94,7.52l14.88,3.98Z"/>
        <path class="cls-1" d="M69.38,35.91c62.3-8.93,61.76,86.18.99,77.87-42.87-5.86-42.51-71.92-.99-77.87ZM86.49,40.63c-3.25-1.89-21.35-1.02-22.8,1.01-1.21,1.7,3.61,6.2.46,6.91-3.42.77-3.48-3.52-5.04-3.9-3.3-.8-15.32,13.32-14.3,17.79,9.27.59,4.81,7.29-1.97,2.98-2.05,7.84-.91,15.17.99,22.82,3.84.26,5.25-3.71,7.91.49-1.11,2.13-5.75,2.55-4.47,5.44,1.54,3.49,14.24,15.09,17.32,12.86.45-.32.91-5.45,3.53-4.9,2.88.61-.33,5.54.58,6.86,1.63,2.35,22.41,1.15,22.66-2.39.02-.35-4.03-5.71-.39-6.46,3.03-.62,2.5,5.68,4.84,4.86,3.97-1.39,13.29-12.38,14.45-16.34.57-1.96-.45-1.18-1.33-1.52-2.94-1.16-22.52-7.87-23.97-7.8-5.52.27-3.68,7.66-4.88,9.91-.66,1.23-3.25.11-3.42-.13-.57-.77.53-4.06-.56-5.88-.99-1.67-5.88-1.66-7.05-6.93-.52-2.33,1.01-4.28.16-5.94s-11.97-9.19-12.47-11.43c-.27-1.23,1.06-2.57,2.36-2.38,3.02.44,11.49,11.42,13,11.53.29.02,5.11-1.94,5.45-2.22,2.69-2.26,6.21-21.1,8.96-25.26ZM85.73,75.1c.88,1.03,24.5,8.59,25.61,7.76,4.64-17.3-4.75-33.61-20.4-41.23-1.59.11-7.58,22.27-9.23,25.48,1.78,1.59,3.32,7.18,4.02,8ZM80.28,71.63c-3.71-3.71-10.1,2.27-5.64,6.16,3.87,3.38,9.18-2.62,5.64-6.16Z"/>
        <path class="cls-1" d="M24.47,30.69c3.96.62,2.95,4.96,0,4.96H2.64c-3.4,0-3.4-4.96,0-4.96,6.27,0,16.13-.89,21.83,0Z"/>
        <path class="cls-1" d="M28.94,44.58c2.38,6.26-18.45,4.31-20.39,3.02-1.82-1.2-1.03-3.02.05-3.02h20.34Z"/>
        <path class="cls-1" d="M.16,70.38h15.38c.36,0,1.69,1.5,1.48,2.47-.39,1.81-18.95,3.98-16.86-2.47Z"/>
        <path class="cls-1" d="M23.87,96.27c.49.29,1.57,3.19-.52,3.75-1.9.51-11.83.71-12.27-1.38-.73-3.47,11.89-2.92,12.79-2.38Z"/>
      </g>
    </g>
  </g>
</svg>