<?xml version="1.0" encoding="UTF-8"?>
<svg id="Layer_2" data-name="Layer 2" xmlns="http://www.w3.org/2000/svg" viewBox="0 0 206.91 206.76">
  <defs>
    <style>
      .cls-1 {
        fill: #00a651;
      }
    </style>
  </defs>
  <g id="Layer_1-2" data-name="Layer 1">
    <g id="ui65PU">
      <g>
        <path class="cls-1" d="M7.36,206.76c-6.79-2.2-9.93-10.34-4.85-15.95.74-.81,4.14-3.03,5.05-3.03h6.67v-36.36c-10.55,5.44-19.9-8-10.07-15.53,1.28-.98,9.53-5.22,9.67-5.77v-46.17c-7.07.24-11.79-6.49-8.84-13.08,1.25-2.79,3.22-3.72,5.74-5.17,1.61-.93,8.64-4.74,9.95-5.02,2.87-.61,5.29,2.69,3.06,5.1-2.35,2.54-10.98,4.63-12.93,7.27-2.11,2.86.75,5.78,4.51,4.1,7.19-3.21,14.08-7.64,21.13-11.19,1.42-.72,7.21-3.89,8.26-3.82l30.83,15.67c3.12.1,4.59-3.3,2.11-5.35l-31.88-16.59c-3.84-1.46-10.39,6.45-13.73,3.63-1.31-1.1-1.33-3.07-.37-4.38.36-.49,8.34-4.73,9.42-5.12,1.97-.71,3.97-.91,5.97-.26,9.76,5.05,19.79,9.72,29.41,15.02,2.71,1.49,6.1,2.96,7.49,5.84,3.19,6.64-1.5,13.58-8.71,13.35v11.31h34.94c2.17,0,3.59,5.26.32,5.97-.85.18-4.16-.21-4.16.69v7.47c0,.35,5.19-1.17,5.97,2.31l.29,18.7c5.92,3.99,16.85,7.76,12.27,17.11-2.48,5.06-8.42,6.41-13.28,3.89v16.56h47.26v-7.27c-35.39-4.49-35.13-49.46-28.16-76.03,4.38-16.68,19.55-49.77,41.63-34.18,2.55,1.8,12.01,10.13,6.88,12.8-3.19,1.67-3.95-1.43-5.6-3.18-9.29-9.86-16.8-10.08-25.41.85-15.09,19.15-22.82,68.62-3.84,86.97,3.93,3.8,9.11,6.04,14.5,6.71v-20.6h-5.86c-.36,0-2.69-.64-3.19-.84-2.07-.85-7.59-8.74-7.91-10.7-.42-2.55,1.88-4.55,4.34-3.5,1.95.84,5.26,8.58,5.96,8.58h6.67v-29.89c-4.04,1.39-14.49-9.29-7.19-10.63,3.09-.57,4.63,3.78,7.18,4.57.1-1.61-.19-3.36.1-4.95.81-4.47,6.37-2.95,6.37-.1v26.86c3.78,1.01,4.38-2.11,6.66-3.64,2.98-1.99,6.24,1.26,4.25,4.25-.4.59-4.57,4.72-5.1,5-1.57.82-4.06.87-5.81.86v34.34c12.48-1.91,19.48-13.02,22.17-24.49,3.58-15.28,1.43-33.24-3.07-48.13-.7-2.3-3.16-7.21-2.93-9.14.31-2.51,3.87-3.22,5.44-1.44.85.96,2.93,7.42,3.45,9.07,7.61,24.32,10.17,69.44-20.03,79.36-1.64.54-3.69.49-5.02,1.44v7.07h28.07c.26,0,1.14.75,1.36,1.06,1.99,2.8.19,18.07.86,18.74,5.43-.67,9.47,2.32,11.31,7.27v4.44c-1.45,3.7-3.57,5.82-7.27,7.27h-60.59c-2.63-1.72-2.57-5.18.63-6.03l58.46-.11c3.44-1.32,3.64-4.99.31-6.6l-189.59-.1c-3.76,1.42-3.51,5.71.34,6.76h117.13c3.65.44,4,4.37,1,6.08H7.36ZM68.76,104.56v-22.82c-7.77-4.63-16.01-8.57-24.07-12.72-8.36,3.41-16.02,8.65-24.41,12.11v45.24l38.91-22.7c3.33-1.62,6.44-.52,9.57.88ZM84.11,109.41v-7.47s-.56-.61-.61-.61h-8.28v7.07c0,.07.94,1.01,1.01,1.01h7.88ZM100.27,101.33h-10.1v8.08h10.1v-8.08ZM62.2,109.08L7.38,141.13c-2.99,2.44,0,6.8,3.38,4.99,15.49-8.74,30.47-18.47,46.02-27.09,1.34-.74,4.94-3.11,6.13-3.11s4.79,2.36,6.13,3.11c15.55,8.63,30.54,18.33,46.02,27.09,3.37,1.76,6.38-2.43,3.38-4.99l-55.16-32.13c-.37-.07-.71,0-1.07.07ZM106.33,115.47h-18.99l18.99,11.31v-11.31ZM105.52,147.38c-14.36-7.8-28.27-16.67-42.62-24.62-14.35,7.94-28.23,16.86-42.62,24.62v40.4h10.5v-35.75c0-1.32,2.5-3.2,3.86-3.41,4.16-.64,17.38-.47,21.81-.05,1.09.11,2.12.33,2.99,1.05.4.33,1.63,2.12,1.63,2.41v35.75h44.43v-40.4ZM55.03,154.65h-18.18v33.12h18.18v-33.12ZM189.14,174.04h-77.56v13.73h77.56v-13.73Z"/>
        <path class="cls-1" d="M109.97,18.52c6.44-1.5,12.95.63,17.13,5.69.57.68,1.5,2.79,1.85,3.02.59.38,2.08-.32,3.03-.27,4.97.27,9.47,2.69,11.99,7.04,2.05,3.53,3.54,7.86-1.16,9.88l-103.34.09c-4.96-.82-4.27-5.47-2.57-9.05,1.44-3.02,4.75-5.92,7.92-7.03.99-.35,4.17-.76,4.47-.98.22-.17.71-2.12,1.08-2.76,3.8-6.57,10.74-10.06,18.35-9.32,6.97-21.67,38.08-18.88,41.25,3.68ZM42.5,37.91h96.54c-1.82-3.63-4.71-4.87-8.69-4.44-1.82.19-2.89,1.45-4.8.36-1.32-.75-1.77-3.26-2.59-4.67-2.47-4.23-7.54-5.89-12.18-4.36-2.19.72-3.31,2.69-5.82.95-1.73-1.2-.87-4.61-1.1-6.57-1.81-15.44-23.71-18.06-29.23-3.06-.63,1.72-.34,4.21-2.08,5.19-1.87,1.07-3.07-.13-4.84-.31-4.75-.49-10.03,1.98-12.08,6.42-1,2.18-.73,5.62-3.67,6.05-.94.14-1.8-.23-2.65-.16-2.85.23-5.96,1.62-6.81,4.61Z"/>
        <path class="cls-1" d="M70.27,148.68c7.06.46,15.66-.93,22.54-.1,1.82.22,3.57,1.41,4.04,3.23.6,2.32.53,15.6.2,18.4s-2.96,4.03-5.45,4.25c-4.81.42-15.07.49-19.81-.02-2.38-.26-4.76-1.72-5.06-4.23-.43-3.59-.43-13.8,0-17.39.26-2.12,1.52-3.55,3.54-4.14ZM78.86,154.65h-6.06v13.33h6.06v-13.33ZM90.98,154.65h-6.06v13.33h6.06v-13.33Z"/>
        <path class="cls-1" d="M42.81,75.98c16.81-2.21,19.53,23.4,3.89,25.3-18.02,2.19-20.03-23.18-3.89-25.3ZM44.03,82.02c-8.65.69-7.76,13.89,1.09,13.26s7.48-13.94-1.09-13.26Z"/>
      </g>
    </g>
  </g>
</svg>