<?xml version="1.0" encoding="UTF-8"?>
<svg id="Layer_2" xmlns="http://www.w3.org/2000/svg" version="1.1" viewBox="0 0 199.3 199.3">
  <!-- Generator: Adobe Illustrator 29.0.1, SVG Export Plug-In . SVG Version: 2.1.0 Build 192)  -->
  <defs>
    <style>
      .st0 {
        fill: #00a651;
      }
    </style>
  </defs>
  <g id="ZFanZ6">
    <g>
      <path class="st0" d="M61.7,20.6v6.6L92.8,3.6c3.7-2.2,8.5-2.1,12.4-.3l88.7,67.7c7.4,8.5,1.4,21.1-10.2,19.7-5.4-.7-9.5-6.5-14.3-8.6v79.8c0,.3,3.7,3.1,4.5,4.1s2.3,4.4,2.5,4.5c.6.4,3.1.1,4.2.3,11.7,1.8,18.4,12.1,17.2,23.6-.2,2.3-.9,4-3.5,4.3h-92.9c-3.6-.3-3.5-4.7-3.5-7.4H19.4c-1.4-.3-3.2-.6-3.6-2.3.5-4.9-.7-11,0-15.7,0-.7.9-2.3,1.5-2.3h11.4v-89.1c-4.5,2.3-8.7,8-13.9,8.6-11.6,1.4-17.6-11.1-10.3-19.8l31.5-24.2v-26.1c-2,.2-4.7,0-5.2-2.3-.5-2.2-.3-11.4-.1-14,.2-2.1.9-3.2,3.1-3.5,9.6.7,20.3-.9,29.7,0,2.5.2,3.2,1.1,3.5,3.5.3,2.7.4,11,0,13.5-.5,2.9-2.7,2.9-5.3,2.8h0v.2ZM60.9,7h-23.9v7.8h23.9v-7.8ZM97.1,8.3c-1.4.3-3.6,2.2-4.8,3C64,31.6,37.5,54.4,9.3,74.8c-5.3,5.1.9,13.1,7.2,8.8,25.8-19.2,50.8-39.6,76.7-58.7,1.2-.9,4.8-3.9,6-4,1.5,0,6.4,4.1,8,5.2,25.5,18.8,50,39,75.5,57.8,6.4,3.6,12-4.7,6.4-9.3L103.2,9.1c-1.6-1-4.3-1.1-6.1-.7h0ZM55.5,20.6h-13.6v21.5l13.6-10.1s0-11.4,0-11.4ZM163.6,160.1v-82.7c-21.5-16.4-42.7-33.2-64.5-49.2l-64.2,49.2v93.9h17.1l.6-.6v-60.7c0,0,1-1,1.2-1.2l37.4-.2c.9-.3,2.7,1.8,2.7,2.3v60.4h20.8c.3,0,3.1-.6,3.3-.8.4-.4,1.1-3.3,1.6-4.2,5.9-11.7,20.3-16,31.4-8.5.9.6,3.9,3.5,4.3,3.6,1,.3,6.4-2.2,8.4-1.2h-.1ZM87.7,114.3h-29.3v56.3l.6.6h28.7v-57h0ZM192.1,192.7c.4-6.9-4.1-14.1-11-15.6-2.1-.5-7.7-.2-8.9-1s-1.1-2.6-1.6-3.8c-2.3-5.2-6.7-7.9-12.4-5.6-1.3.5-2.3,2.1-4,1.8-1.9-.3-3.5-3.4-5.1-4.8-7.3-6.3-18.6-4.5-23.4,3.9-1.2,2.1-2.3,8.1-3.6,8.7-1.3.6-5.6.3-7.4.8-6.7,1.7-10.9,8.8-10.7,15.5h88.3-.2ZM103.4,177H21.7v8.3h77c1.4-2.9,2.7-5.7,4.7-8.3h0Z"/>
      <path class="st0" d="M110.7,108.6h35.4c2.3.2,2.5,2.3,2.7,4.2.6,8.1.8,23.4,0,31.4-.2,1.8-.6,3.7-2.7,3.9-11.1-.8-23.4,1-34.3,0-2.3-.2-2.9-.7-3.1-3.1-1-10.8.8-23,0-33.9,0-1.3.7-2.3,2-2.6h0ZM125.7,114.3h-11.1v10.3h11.1v-10.3ZM142.6,114.3h-10.5l-.6.6v9.1l.6.6h10.5s0-10.3,0-10.3ZM125.7,142.3v-11.4l-.6-.6h-9.9l-.6.6v11.4h11.1ZM142.6,130.4h-10.5l-.6.6v10.7l.6.6h10.5v-12h0Z"/>
      <path class="st0" d="M99.1,55.8c19.7-.2,19.8,30,0,29.9-19.8-.2-19.5-29.7,0-29.9ZM97.5,62c-10.8,1.8-8.6,19.6,3.5,17.5,10.6-1.8,8.6-19.6-3.5-17.5Z"/>
    </g>
  </g>
</svg>