<?xml version="1.0" encoding="UTF-8"?>
<svg id="Layer_2" data-name="Layer 2" xmlns="http://www.w3.org/2000/svg" viewBox="0 0 510.99 511.08">
  <defs>
    <style>
      .cls-1 {
        fill: #00a651;
      }
    </style>
  </defs>
  <g id="Layer_1-2" data-name="Layer 1">
    <g id="dIoMyO">
      <g>
        <path class="cls-1" d="M60.87,511.08c-12.59-3.89-22.16-13.02-23.94-26.46l.03-296.24C16.79,178.92,2.82,160.55,0,138.29L.05,8.63C1.15.68,11.12-2.76,16.9,2.62c.6.55,3.05,4.65,3.05,4.94v110.28h17.96V7.56C37.91,3.79,44.57-.15,48.37,0c3.46.14,9.5,4.23,9.5,7.56v110.28h17.96V7.56C75.84,3.79,82.5-.15,86.29,0c3.46.14,9.5,4.23,9.5,7.56v110.28h17.96V7.56c0-.29,2.45-4.38,3.05-4.94,5.78-5.38,15.75-1.94,16.85,6l.05,129.67c-2.92,22.09-16.78,40.86-36.95,50.09l.03,296.24c-1.78,13.44-11.36,22.57-23.94,26.46h-11.98ZM112.76,137.81H20.94c.91,13.03,10.96,25.37,22.27,31.12,5.64,2.87,12.32,2.04,13.59,10.36.65,101.82-.98,203.93.82,305.58,5.62,9.9,17.05,7.37,19.23-3.21l.03-302.37c1.45-7.71,8.5-7.61,13.6-10.35,11.44-6.16,21.26-17.7,22.27-31.12Z"/>
        <path class="cls-1" d="M510.99,7.06v480.06c-3.77,12.25-11.71,20.18-23.95,23.95h-11.98c-12.31-3.83-21.65-12.5-23.84-25.56l-.32-151.39c-13.87-15.41-31.25-26.6-33.61-49.23,4.21-97.1-22.66-195.11,58.24-267.88,8.5-7.65,27.57-26.44,35.46-9.95ZM491.03,31.02c-32.85,27.37-51.79,69.53-53.94,112.23-2.29,45.49,1.72,92.98.15,138.67,2.34,20.02,23.6,29.81,33.62,45.23l.27,155.43c1.83,6.45,8.37,11.09,14.87,6.99,1.13-.71,5.04-4.99,5.04-5.94V31.02Z"/>
        <path class="cls-1" d="M243.31,114.15c115.03-8.78,193.66,115.01,133.75,214.59-51.35,85.37-171.64,92.09-233.31,14.12-69.42-87.77-11.44-220.24,99.56-228.72ZM247.3,134.11c-95.04,6.57-145.85,114.61-90.43,192.64,50.32,70.86,159.36,65.83,203.22-8.99,49.54-84.51-15.42-190.38-112.79-183.65Z"/>
        <path class="cls-1" d="M394.94,357.57c8.19-1.81,14.26,6.07,11.81,13.84-.7,2.22-8.86,11.54-11.02,13.93-55.68,61.58-149.97,78.35-224.45,41.78-8.65-4.25-29.33-13.04-22.03-24.78,6.66-10.71,16.22-1.18,23.38,2.47,65.2,33.18,139.91,28.33,195.65-20.97,5.03-4.45,22.96-25.45,26.66-26.27Z"/>
        <path class="cls-1" d="M239.31,65.25c50.7-3.69,99.4,11.48,138.41,43.64,4.28,3.53,17.65,14.76,18.43,19.49,1.51,9.15-5.05,14.75-13.97,11.98-3.36-1.05-11.44-11.08-14.9-14.04-44.22-37.79-104.08-50.76-160.22-34.44-10.26,2.98-20.04,8.92-29.21,11.71-13.47,4.09-20.03-11.58-7.91-18.89,16.51-9.96,50.12-18.06,69.37-19.46Z"/>
        <path class="cls-1" d="M135.37,390.97c-9.38,9.16-23.92-4.96-15.07-14.57,9.36-10.16,24.3,5.55,15.07,14.57Z"/>
        <path class="cls-1" d="M219.28,170.97c13.43-2.8,19.56,10.87,9.19,18.17s-17.87,8.37-27.39,19.52c-14.85,17.39-13.95,28.63-17.51,49.36-1.64,9.58-17.56,10.31-19.68-.18-3.48-17.24,8.75-45.47,19.33-59.06,6.53-8.38,25.79-25.67,36.05-27.81Z"/>
        <path class="cls-1" d="M252.21,163.97c17.88-4.02,17.18,24.91-.77,19.3-9.17-2.86-7.91-17.35.77-19.3Z"/>
      </g>
    </g>
  </g>
</svg>