<?xml version="1.0" encoding="UTF-8"?>
<svg id="Layer_2" data-name="Layer 2" xmlns="http://www.w3.org/2000/svg" viewBox="0 0 511.24 447.34">
  <defs>
    <style>
      .cls-1 {
        fill: #00a651;
      }
    </style>
  </defs>
  <g id="Layer_1-2" data-name="Layer 1">
    <g id="cb9cjb">
      <g>
        <path class="cls-1" d="M511.12,142.76c-.29,3.87.4,8.19,0,11.98-1.26,11.94-7.51,26.17-14.56,35.84-7.79,10.69-17.9,17.58-29.4,23.71l.07,221.43c-1.22,7.7-7.9,11.7-15.45,11.49-133.03-.8-266.37,1.38-399.21-1.1-4.42-1.38-8.02-5.86-8.57-10.4l.03-220.6c-.56-2.95-6.25-4.34-8.91-6.06C15.58,196.39,2.19,176.9.24,153.12c-.59-7.14-.27-8.84,2.7-15.01C24.13,94.06,55.34,51.06,77.55,7.12,79.79,2.25,85.38.45,90.4,0h328.44c7.28.53,10.89,1.62,15.26,7.69l77.01,135.07ZM474.19,129.79l-58.89-103.29-318.68-.31-59.58,103.61h437.15ZM120.88,155.74H26.06c11.81,51.72,82.88,51.55,94.81,0ZM241.64,155.74h-93.82c10.56,51.39,83.79,51.52,93.82,0ZM363.4,155.74h-93.82c10.47,51.49,83.14,51.45,93.82,0ZM485.17,155.74h-94.81c11.89,51.66,82.98,51.77,94.81,0ZM68.98,219.61v201.61h43.91v-135.24c0-21.87,18.95-40.76,40.39-42.45,12.61-1,44.1-1.33,55.12,2.84,11.35,4.3,27.26,21.09,27.26,33.62v141.22h206.6v-200.11c-3.24-2.19-9.33-.96-13.46-1.51-21.57-2.88-39.57-14.78-52.39-31.93-22.55,36.05-73.51,42.75-106.28,15.94-2.59-2.12-13.95-15.2-14.99-14.94-28.59,41.42-93.32,42.04-120.29-1-15.25,20.66-39.7,34.38-65.86,31.94ZM210.7,421.22v-138.23c0-1.84-4.35-8.42-6.05-9.92-3.42-3.01-7.91-4.2-12.38-4.59-8.53-.74-30.73-1.07-38.72.27-2.73.46-6.63,2.4-8.75,4.23-1.39,1.2-5.96,7.9-5.96,9.01v139.23h71.86Z"/>
        <path class="cls-1" d="M287.29,243.81c23.91-3.72,55.84,2.29,80.61-.25,13.65,1.48,27.57,14.92,29.35,28.54,1.81,13.83,1.36,48.45.12,62.83-1.31,15.17-13.6,27.87-28.47,30.41-25.72-1.78-54.55,2.35-79.89.04-13.28-1.21-27.58-14.29-29.32-27.57s-1.58-52.26.03-65.68,14.73-26.31,27.58-28.32ZM293.28,268.76c-5.33.96-8.1,3.78-8.75,9.22-1.32,11.05-1.31,42.88,0,53.94.54,4.56,3.75,8.08,8.48,8.48,22.51-1.61,47.76,2.07,69.93.02,6.11-.56,8.74-3.34,9.43-9.53,1.33-11.82,1.21-39.96.05-51.95-.73-7.61-4.04-9.82-11.49-10.47-21.47-1.88-45.9,1.29-67.67.28Z"/>
      </g>
    </g>
  </g>
</svg>