<?xml version="1.0" encoding="UTF-8"?>
<svg id="Layer_2" data-name="Layer 2" xmlns="http://www.w3.org/2000/svg" viewBox="0 0 445.14 479.15">
  <defs>
    <style>
      .cls-1 {
        fill: #00a651;
      }
    </style>
  </defs>
  <g id="Layer_1-2" data-name="Layer 1">
    <g id="QMkg0n">
      <g>
        <path class="cls-1" d="M347.32,413.36c.77,9.11-2.74,18.99-8.15,26.28-9.73,13.11-25.67,13.09-40.61,12.78-10.05,33.86-42.79,28.63-70,21.32-4.61-1.24-18.68-7.44-21.91-5.99-2.35,1.06-5.9,4.69-9.02,6-16.45,6.86-33.84-.71-41.8-16.1-.96-1.86-1.89-6.83-2.76-7.45-1.58-1.14-7.82-.98-10.9-1.85-11.14-3.16-21.68-15.47-23.49-26.91-21.14,1.96-41.16-20.64-35.59-41.28.6-2.25,3.89-6.56,3.59-8.08-.24-1.26-13.43-17.14-15.63-20.28-4.51-6.44-8.98-13.08-12.18-20.28-6.98,8.5-16.11,12.31-26.63,7.19-3.86-1.88-23.66-16.18-26.64-19.27-8.46-8.8-6.28-16.9-.42-26.15,23.45-37.06,57.37-71.94,81.68-108.94,6.14-6.58,13.33-7.94,21.6-4.69,4.75,1.87,28.54,18.89,31.1,22.79,1.65,2.51,3.24,6.82,3.25,9.82,0,1.89-1.36,4.71-1.02,5.87.66,2.22,20.05,5.35,23.4,5.59,11.66.86,24.27-.76,35.96-.03,6.94.43,15.34,3.13,21.91,3.13,6.19,0,14.26-2.71,20.92-3.13,11.69-.74,24.3.89,35.96.03,3.49-.26,22.7-3.2,23.39-5.6.35-1.23-1.04-3.83-.96-5.81.18-4.96,3.02-10.1,6.54-13.51,3.93-3.81,22.16-16.63,27.07-18.85,8.78-3.97,17.18-1.92,23.29,5.39,24.15,36.49,56.8,70.88,80.26,107.37,6.28,9.77,8.78,18.01-.5,27.23-2.71,2.69-25.1,18.7-28.1,19.8-10.33,3.8-19.12-.83-25.19-9.19-2.15,0-10.77,15.27-10.49,18.38.19,2.04,7.72,11.13,9.36,14.66,11.85,25.57-9.47,53.59-37.3,49.77ZM43.73,324.35l81.61-109.55c.63-1.54.85-3.37-.58-4.53-5.93-2.06-18.04-14.95-22.86-16.02-1.48-.33-2.59.62-3.49,1.63l-81.7,109c-.82,1.62-.12,2.58,1.02,3.74,2.01,2.04,18.21,13.5,20.87,14.77,1.47.7,3.58,1.88,5.15.97ZM401.4,324.35c3.04,1.03,5.2-1.19,7.52-2.58s19.15-13.17,19.8-14.19c.48-.76.51-1.26.06-2.04l-81.47-109.23c-1.04-1.03-2.45-2.43-4.08-2.06-4.4.99-17.2,14.08-22.85,16.03l-.82,3.74,81.84,110.35ZM359.14,344.33c.81-.5,6.1-13.84,8.32-17.12,2.38-3.5,5.84-6.94,8.63-10.15l-63.17-84.04c-21.36,9.36-43.74,5.26-65.89,6.69-31.12,2.01-45.71,13.88-72.01,25.8-4.36,1.97-31.63,11.64-32.24,13.75-.66,2.27,5.05,9.23,6.93,10.85,12.79,11.05,29.5-.17,42.93-4,30.86-8.8,56.58-5.59,83.75,11.06,22.63,13.87,50.09,44.73,76.55,47.2,1.54.14,5.15.6,6.21-.05ZM188.63,239.72c-19.5,3.24-38.81-1.77-57.7-5.81l-61.66,83.69c7.66,16.19,18.41,30.54,29.52,44.46l1.32.29c12.78-8.28,24.81-13.11,39.6-6.36,8.24,3.76,16.26,14.08,15.98,23.45,18.17-2.42,36.48,8.93,38,27.87,26.16.79,39.5,24.71,27.86,47.98,17.87,3.64,53.12,19.46,60.47-6.02-7.91-2.95-16.13-5.03-24.06-7.93-7.97-2.91-25.49-6.62-20.69-17.73,4.2-9.71,22.44,1.42,29.67,3.76,14.17,4.6,45.97,15.43,57.95,4.02,3.36-3.2,9.06-16.53,5.26-19.82-.46-.4-9.71-2.06-11.79-2.68-7.05-2.13-14.87-4.61-21.73-7.21-7.62-2.89-22.09-5.79-18.75-16.29s20.25-.22,26.98,2.06c14.76,5,34.19,11.77,49.81,9.85,15.98-1.96,21.43-19.42,12-31.74-5.27-6.88-4.57-3.31-10.85-4.06-58.62-6.99-81.12-72.06-144.62-62.77-23.33,3.42-47.09,22.98-69.41,6.27-10.29-7.7-20.59-23.33-11.9-35.68,5.29-7.51,27.1-13.27,36.44-17.46,7.37-3.31,15.88-7.43,22.28-12.14ZM139.5,387.19c5.12-7.17-5.4-18.87-14.14-18.64-5.23.14-24.88,10.68-26.34,15.58-2.89,9.71,7.3,21.96,17.27,21.35,3.74-.23,9.25-8.99,12.98-12.04,1.92-1.57,9.88-5.75,10.23-6.24ZM159.43,395.64c-5.25.86-23.98,11.44-25.49,16.44-1.84,6.07,3.49,14.74,8.29,18.25,9.92,7.27,21.3.37,28.96-6.96,12.81-12.24,5.45-30.54-11.76-27.73ZM168.8,444.43c-3.24,5.07,9.12,14.99,14.62,15.65,13.87,1.67,38.71-23.5,19.35-34.39-12.11-6.81-13.95,3.67-21.64,10.61-2.42,2.19-5.82,4.52-8.53,6.46-1,.72-3.68,1.49-3.8,1.67Z"/>
        <path class="cls-1" d="M120.56.47c30.84-3.15,57.88,9.73,75.47,34.73,1.85,2.62,4.35,9.38,7.07,9.89l164.72-.04c17.41.65,29.01,12.38,26.17,30.24-.85,5.34-7.85,27.95-10.23,32.68-1.49,2.95-3.6,5.38-7.05,5.92-4.17.66-19.49.57-23.47-.37-5.91-1.41-19.58-19.93-22.25-19.46-11.21,8.66-14.16,22.47-31.01,19.82-7.59-1.19-16.78-15.17-23.02-19.88-1.48,0-16.96,19.26-21.39,19.51l-53.98.92c-25.28,51.87-95.5,60.42-132.7,15.95C29.09,82.81,59.34,6.72,120.56.47ZM370.14,96.85c1.16-.74,7.96-24.49,8.1-26.43.27-3.69-1.57-6.5-4.91-7.92l-177.14-.51c-7.89-1.21-7.02-6.84-10-11.95C145.25-20.28,46,30.2,70.82,101.52c16.03,46.03,78.27,56.04,108.8,17.9,3.68-4.59,9.93-19.15,13.07-20.87,1.89-1.04,5.18-1.42,7.38-1.6,16.27-1.38,34.27,1.27,50.73-.17,6.98-4.24,19.82-24.06,27.91-22.59,5.5,1,19.94,21.4,24.41,22.66,1.78.5,2.4.05,3.83-.8,5.62-3.35,18.18-21.58,23.95-21.98,1.98-.14,4.3.88,5.94,1.96,5.52,3.63,15.87,18.36,20.47,20.45,1.54.7,11.92.95,12.82.38Z"/>
        <path class="cls-1" d="M119.57,48.33c40.89-3.17,45.49,59.31,5.68,62.61-42.43,3.53-45.81-59.51-5.68-62.61ZM117.5,65.28c-15.85,3.27-12.23,31.04,5.47,29.51,20.46-1.77,17.91-34.32-5.47-29.51Z"/>
      </g>
    </g>
  </g>
</svg>