<?xml version="1.0" encoding="UTF-8"?>
<svg id="Layer_2" data-name="Layer 2" xmlns="http://www.w3.org/2000/svg" viewBox="0 0 495.25 447.74">
  <defs>
    <style>
      .cls-1 {
        fill: #00a651;
      }
    </style>
  </defs>
  <g id="Layer_1-2" data-name="Layer 1">
    <g id="jHxTEV">
      <path class="cls-1" d="M295.54,5.92c.53-2.47,4.02-5.04,6.55-5.43,4.45-.7,32.91-.71,36.42.39,2.35.73,3.42,2.5,4.45,4.54,2.9,5.71,12.49,41.17,14.42,42.47,22.79,3.52,55.04-8.3,69.32,15.52,9.97,16.63,3.38,39.72-15.34,45.87l.16,2.21,51.7,118v26.45c8.13-.07,15.1-1.62,16.02,8.44,1.21,13.32-.63,28.99-.49,42.52-2.74,6.58-9.65,4.8-15.52,4.94v19.46c0,1.06,13.04,11.56,15.48,14.46,8.47,10.06,15.6,26.25,16.44,39.45.92,14.46-3.28,15.18-16.94,14.47-8.86,63.46-100.99,63.49-109.8,0-13.8,1.38-18.67-1.5-16.96-15.98h-216.58c4.49,20.71-6.74,43.76-24.43,54.92-41.44,26.14-91.41-7.38-86.37-54.91-10.93.33-20.89-7.63-23.3-18.12C-.66,276.44.38,187.07.23,97.86c.62-21.64,26.66-49.52,48.28-49.52h247.02V5.92ZM340.45,48.33c-4.29-10.42-6.49-21.91-11.48-31.94h-17.47v31.94h28.94ZM87.94,223.99v-122.26c0-2.29,5.72-6.44,8.44-5.54l304.37-.04c20.23-3.58,18.61-30.56-1.87-31.89l-345.35.06c-16.76.09-37.44,18.54-37.44,35.41v124.26h71.86ZM119.88,112.21h-15.97v121.26c0,5.19,35.93,35.4,39.92,42.92v59.38h15.97v-65.37c0-5.19-35.93-35.4-39.92-42.92v-115.27ZM215.69,112.21h-79.84v109.29c7.37,9.48,39.92,34.88,39.92,45.91v68.37h39.92V112.21ZM297.53,112.21h-65.87v79.84c11.31-.94,22.04.84,28.35,11.07.99,1.61,3.59,6.92,3.59,8.39v52.4h36.43c5.31,0,14.23,7.63,16.67,12.27,10.69,20.29-8.1,39.8-29.15,35.64v23.95h47.91v-103.3l-37.93-120.27ZM346.44,112.21h-31.94l34.93,111.78h92.82c-2.32-7.95-6.22-15.94-9.97-23.46-24.86-.29-44.7,1.53-57.77-23.07l-28.07-65.25ZM394.34,112.21h-29.94c-.18,1.11.13,2,.46,3.03,3.61,11.5,19.36,47.23,25.69,57.15,1.53,2.4,2.61,4.22,4.87,6.11,1.71,1.43,9.76,5.57,11.4,5.57h18.46l-30.94-71.86ZM231.66,208.02v55.89h15.97v-49.4c0-.24-2.03-3.97-2.27-4.22-2.99-2.97-9.78-2.24-13.7-2.27ZM89.94,239.96H16.08v23.95h92.82c-4.98-6.63-12.93-12.05-17.42-19.01-1.22-1.89-1.34-4.78-1.54-4.95ZM447.24,239.96h-95.81v106.29c0,1.17-4.32,5.49-5.49,5.49H16.08c-.24,7.68-.91,14.96,8.46,16l330.24-.16c4.21-7.74,7.33-14.99,13.1-21.84,19.47-23.13,50.5-32.04,79.35-21.95v-11.98c-42.42,2.34-42.41-58.22,0-55.89v-15.97ZM463.21,271.9h-22.46c-4.11,0-9.73,8.12-9.55,12.45.17,3.96,5.89,11.5,9.55,11.5h22.46v-23.95ZM127.86,335.77v-53.4c0-.18-2.32-2.5-2.5-2.5H16.08v55.89h111.78ZM271.58,279.88h-39.92v55.89h39.92v-55.89ZM287.55,279.88v15.97c21.2,3.41,21.28-19.36,0-15.97ZM478.18,383.68c-9.6-63.24-100.19-63.24-109.79,0h109.79ZM57,383.68h-15.97c-8.08,63.12,85.93,63.12,77.85,0h-15.97c8.77,42.41-54.69,42.39-45.91,0ZM85.67,385.95c-7.25-7.25-18.67,4.16-11.42,11.42s18.67-4.16,11.42-11.42ZM462.21,399.65h-77.85c9.16,42.12,68.68,42.13,77.85,0Z"/>
    </g>
  </g>
</svg>