<?xml version="1.0" encoding="UTF-8"?>
<svg id="Layer_2" xmlns="http://www.w3.org/2000/svg" version="1.1" viewBox="0 0 199.3 199.3">
  <!-- Generator: Adobe Illustrator 29.0.1, SVG Export Plug-In . SVG Version: 2.1.0 Build 192)  -->
  <defs>
    <style>
      .st0 {
        fill: #00a651;
      }
    </style>
  </defs>
  <g id="J23JJq">
    <g>
      <path class="st0" d="M61.6,175.4c-1.2,7.9-11.7,8-17.8,7.5s-9.6-3.7-10.1-10.1c-.3-3.4.7-10,0-12.7,0-.1-1.9-1.4-2.4-2-2-2.5-3.2-5-3.9-8.1-2.4-11.6-3.6-27.2-4.8-39.2-1.4-13.5-2-27.1-.6-40.6-.1-.8-11.2-5.5-12.8-6.7-1.9-1.3-1.9-2.4-2.4-4.5-.7-3.6-3-18-2.6-20.9.5-3.2,5-4,7.1-1.8,2.3,2.5,2.3,16.9,3.8,20.8l7.9,3.9c1.1-9.6,1.7-19.3,3-28.8C29.9,7.2,46.5,4.8,68.3,2.1c20.7-2.5,42.5-2.3,63.1.4,21.5,2.8,38,4.9,41.7,29.7,1.4,9.5,1.9,19.2,3,28.8l7.9-3.9c1.3-5.5,1.4-11.2,2.5-16.8.5-2.6,1.2-5.7,4.7-5.4,3.7.3,3.9,3.1,3.7,6-.3,4.9-1.6,13.5-2.6,18.3-.2.9-.4,1.9-.8,2.6-1.5,2.7-11.6,5.9-14.4,8,1.6,13.5.9,27.2-.5,40.7-1.2,12-2.5,27.6-4.8,39.2-.7,3.5-2,5.8-4.3,8.5-.5.6-1.9,1.3-1.9,1.6-.7,2.8.3,9.3,0,12.7-.3,4.4-2,7.9-6.4,9.4-3.4,1.1-12.6,1-15.9-.3-2-.8-5.4-4.3-5.4-6.5v-11.7c-.7.1-3.2-.2-3.4,0s-.2,2-.7,2.9c-.3.5-2.1,2.2-2.5,2.2h-9.6c-.9,9.6,3.8,25.4-8.6,29.3-3.9,1.2-17.8,1-22.5.7-16.7-1.2-12-18.3-12.6-29.9h-9.6c-.4,0-2.2-1.7-2.5-2.2-.5-.9-.6-2.8-.7-2.9-.2-.2-2.7.1-3.4,0-.4,3.6.5,8.3,0,11.7h0l-.2.2ZM132.6,155.5h24c3.9-1.1,6.2-3.1,7-7.1,3.1-27.1,7.6-52.8,5.2-80.3-1-11.6-2.3-26.3-4.3-37.6-3.1-17.1-20.1-18-34.4-19.9-22.3-2.9-47.3-2.8-69.5.9-10.8,1.8-22.1,3.8-25.4,16.1-3.5,13.4-2.5,30.8-5.3,44.7-2,25.4,3.2,50.5,5.6,75.6.7,4,3.4,7,7.5,7.5,7.2.9,16.1-.7,23.4,0,10-32.8,56.4-33.1,66.1,0h.1ZM125.3,160.7c-1.4-11.9-12.7-21.4-24.6-21.8-12.7-.5-25.1,9.1-26.7,21.8h51.3ZM53.5,163.6h-11.1v10.7h10.5l.6-.6v-10.1h0ZM157,163.6h-10.5l-.6.6v9.4l.6.6h10.5v-10.7h0ZM113.4,168.8h-27.4v18.2c0,.4,1.4,2.4,2,2.7,1.1.7,2.9.8,4.2.9,4.2.3,12.2.4,16.2,0,.9-.1,2.5-.5,3.3-1,.4-.3,1.7-2.3,1.7-2.6v-18.2h0Z"/>
      <path class="st0" d="M60.3,27h77.7c6.9.6,12.6,5.4,14.1,12.3,2.3,10.8,1.6,23.5,3.6,34.4.5,2.9-.8,5.7-4,5.8H47.7c-2.6,0-4.1-2-4.1-4.5,2.3-11.2,1.1-24.8,3.7-35.7,1.4-6.2,6.7-11.2,13-12.3h0ZM147.1,71.3l-3.1-30.5c-1.2-3.5-3.6-5.6-7.4-5.9-23.9,1.4-49.8-1.8-73.6,0-3.9.3-6.5,2.2-7.7,6-1.3,10.1-1.8,20.4-3.2,30.4h95Z"/>
      <path class="st0" d="M99.6,86.9c24.2-.2,25.5,36.6,1.2,37.9-25.5,1.4-26.6-37.7-1.2-37.9ZM97.4,95.4c-12.6,2.2-10,22.1,2.8,21.2,14.5-1,12.7-23.9-2.8-21.2Z"/>
      <path class="st0" d="M66.2,96.2c2.5,2.7.3,6.6-3.1,7.1-3.2.4-13.4.4-16.5,0-5.6-.9-5.4-7.6,0-8.4,3.3-.5,12.9-.4,16.2,0,1,0,2.8.7,3.5,1.4h-.1Z"/>
      <path class="st0" d="M133.2,96.2c.7-.7,2.5-1.3,3.5-1.4,3.4-.4,12.9-.4,16.2,0,5.3.7,5.6,7.5,0,8.4-3.2.5-13.4.5-16.5,0-3.4-.5-5.6-4.4-3.1-7.1h0Z"/>
    </g>
  </g>
</svg>