<?xml version="1.0" encoding="UTF-8"?>
<svg id="Layer_2" data-name="Layer 2" xmlns="http://www.w3.org/2000/svg" viewBox="0 0 127.09 127.33">
  <defs>
    <style>
      .cls-1 {
        fill: #00a651;
      }
    </style>
  </defs>
  <g id="Layer_1-2" data-name="Layer 1">
    <g id="IEcWs4">
      <g>
        <path class="cls-1" d="M57.63,127.33c-7.21-3.63-9.92-9.89-9.96-17.82-11.21-2.7-28.26-2.67-38.67-6.48C3.56,101.03.26,95.78.01,90.13c-.35-8.16,6.59-44.54,9.11-53.48,1.39-4.94,2.92-6.98,7.45-9.41,9.49-5.09,22.49-8.38,32.47-12.94,2.25-1.67,1.28-18.04,8.6-13.51,4.87,3.01-4.11,15.4,2.93,17,.68.15,5.92-3.91,6.01-4.27.97-3.79-3.24-10.61.97-12.72,6.64-3.33,6.17,7.3,7.13,11.26,9.86,4.15,24.3,7.57,33.26,12.88,3.6,2.13,6.27,5.61,7.13,9.73l12.02,64.88v8.93c-2.2,4.24-5.34,7.77-9.93,9.42l-50.6,9.44h-8.93ZM117.93,109.25c1.48-1.45,1.4-5.99,1.1-8.07l-12.33-67.06c-1.3-2.01-4.59-3.14-6.72-4.19-3.11-1.53-25.14-10.54-26.81-10.46-2.65.14-4.95,2.23-6.59,4.18,9.28,9.91,21.81,13.19,20.69,28.65-.61,8.45-6.9,46.1-9.9,52.6-5.75,12.45-20.71,5.6-21.71,6.56.6,7.94,3.12,8.37,10.29,7.8,11.52-.91,28.78-4.7,40.49-7.13,2.36-.49,10.26-1.69,11.5-2.89ZM47.7,23.15c-10.1,4.04-20.91,7.2-30.22,12.93-3.53,18.46-8,37.13-9.22,55.83.3,3.33,3.75,3.62,6.5,4.36,15.92,4.33,35.23,5.53,51.61,8.56,3.68-.87,3.95-2.92,4.85-6.08,2.99-10.53,7.22-34.52,8.1-45.47.19-2.31.56-5.43-.08-7.61-1-3.41-20.18-16.98-23.11-21.53-.78,10.17-10.51,9.74-8.43-.99Z"/>
        <path class="cls-1" d="M47.93,62.63c.51.87,5.68,3.23,6.97,6.41,1.98,4.88.73,11.63-3.17,15.18-2.96,2.7-7.5,2.58-8.75,3.64-1.1.93-.92,6.32-3.68,5.73-2.96-.64-2.03-5.72-2.67-6.77-.47-.78-8.78-2.67-8.79-6.62,0-6.5,9.78,2.82,10.94,1.48-.5-4.98,2.8-11.63,2-16.33-.69-4.01-8.89-4.57-6.53-14.49,1.88-7.93,9.71-7.05,11.01-8.84.82-1.14.57-7.42,4.49-4.53,1.35.99.58,3.91,1.46,5.48s7.41,3.74,6.43,7.44c-1.31,4.96-6.71-3.36-8.46-.51-.7,1.13-1.96,11.5-1.24,12.73ZM42.74,58.87l.99-10.91c-5.57,1.97-6.77,8.25-.99,10.91ZM43.75,82.68c6.53-1.22,9.8-12.25,3.45-14.87-2.09-.87-1.29,1.45-1.5,2.43-.39,1.81-2.33,11.94-1.95,12.44Z"/>
      </g>
    </g>
  </g>
</svg>